<svg width="18" height="18" viewBox="0 0 18 18" fill="none" xmlns="http://www.w3.org/2000/svg">
<path d="M3.51346 2.53762C3.97346 2.5179 4.3268 2.72827 4.64013 3.0241C5.4268 3.76698 6.2068 4.51643 6.98013 5.27246C7.6268 5.90358 7.62013 6.75821 6.97346 7.39591C6.6868 7.68517 6.39346 7.96786 6.09346 8.24397C5.96013 8.3623 5.9268 8.46092 6.02013 8.63184C6.85346 10.1899 8.06013 11.3733 9.63346 12.2016C9.80013 12.2871 9.90013 12.2871 10.0335 12.1424C10.3268 11.8269 10.6468 11.5376 10.9401 11.2286C11.4801 10.6698 12.3801 10.6107 12.9468 11.1497C13.7601 11.9386 14.5601 12.7538 15.3401 13.5756C15.8468 14.1147 15.8335 14.9562 15.3135 15.4887C14.6468 16.1658 13.9735 16.8298 13.2801 17.4741C12.6601 18.046 11.9135 18.1315 11.1401 17.8225C5.8868 15.7451 2.12013 12.2147 0.140132 6.93572C-0.146535 6.16654 0.0201319 5.43024 0.586798 4.83199C1.21346 4.168 1.87346 3.52374 2.55346 2.91892C2.80013 2.70197 3.16013 2.60336 3.4668 2.45215C3.4868 2.47845 3.50013 2.51132 3.51346 2.53762ZM3.54013 3.85902C2.8668 4.5493 2.25346 5.14755 1.6668 5.77209C1.43346 6.01534 1.4268 6.31775 1.5468 6.63331C2.58013 9.23667 4.09346 11.5047 6.2668 13.3258C7.86013 14.6603 9.62013 15.7253 11.5668 16.4879C11.8001 16.58 12.0468 16.6786 12.2535 16.4748C12.9135 15.8305 13.5668 15.1731 14.2601 14.4763C13.4601 13.7531 12.6668 13.0365 11.8601 12.3002C11.4068 12.7473 10.8535 13.2863 10.3135 13.832C10.1868 13.9635 10.0801 13.9898 9.91346 13.9175C7.3068 12.7933 5.4268 10.9459 4.27346 8.37545C4.1868 8.1848 4.2268 8.06647 4.37346 7.92184C4.92013 7.39591 5.46013 6.8634 5.9268 6.39664C5.1468 5.57487 4.38013 4.7531 3.54013 3.85902Z" fill="#203655"/>
<path d="M11.9135 4.0168C12.4401 4.51644 12.9601 5.01607 13.4601 5.48941C13.1068 5.83784 12.7801 6.16654 12.4935 6.44923C11.3868 5.37765 10.2668 4.29291 9.1468 3.20818C10.2601 2.13002 11.3735 1.05186 12.4601 0C12.7468 0.282688 13.0801 0.611395 13.4468 0.966399C12.9668 1.42659 12.4468 1.92622 11.9268 2.42586C11.9335 2.45216 11.9468 2.47845 11.9535 2.50475C12.3268 2.50475 12.6935 2.49817 13.0668 2.50475C13.7668 2.52447 14.4801 2.47188 15.1535 2.60336C16.9335 2.95179 18.1335 4.58218 17.9801 6.3309C17.8268 8.11249 16.3601 9.47991 14.5068 9.57195C14.2535 9.5851 14.0001 9.57195 13.7135 9.57195C13.7135 9.10519 13.7135 8.65157 13.7135 8.15194C13.9735 8.15194 14.2268 8.15851 14.4735 8.15194C15.6401 8.11249 16.5401 7.19211 16.5468 6.04821C16.5535 4.90431 15.6468 3.96421 14.4868 3.93791C13.6468 3.91819 12.8001 3.93134 11.9601 3.93134C11.9535 3.95763 11.9335 3.9905 11.9135 4.0168Z" fill="#203655"/>
</svg>
