<svg width="53" height="28" viewBox="0 0 53 28" fill="none" xmlns="http://www.w3.org/2000/svg">
<path d="M0 13.3559C0.190273 13.0737 0.44397 12.967 0.816588 12.967C4.89953 12.9822 8.98247 12.9746 13.0654 12.9746C13.3905 12.9746 13.6124 13.0661 13.7234 13.3864C13.8265 13.6915 13.7155 13.928 13.4697 14.1034C13.3667 14.172 13.2081 14.1949 13.0654 14.1949C12.114 14.2025 11.1627 14.2025 10.1558 14.2025C10.1558 14.3475 10.1558 14.4619 10.1558 14.5839C10.1558 17.139 10.1637 19.6941 10.1479 22.2492C10.1479 22.6076 10.2589 22.7449 10.6474 22.7373C11.6146 22.722 12.5739 22.7297 13.5411 22.7373C13.7631 22.7373 13.8503 22.6763 13.8978 22.4475C14.0802 21.6009 14.4687 20.8305 15.0791 20.1898C15.7926 19.4347 16.6964 18.9771 17.7271 18.7788C19.0749 18.5271 20.3196 18.8093 21.4295 19.572C22.4126 20.2432 23.0547 21.1509 23.3084 22.2873C23.3798 22.6076 23.4987 22.7373 23.8713 22.7373C28.4379 22.7297 33.0123 22.7373 37.5789 22.7373C37.8167 22.7373 37.9277 22.6992 37.9991 22.4246C38.4351 20.678 39.4975 19.4729 41.3209 18.9085C44.0244 18.0619 46.9419 19.8314 47.4176 22.3941C47.4572 22.6153 47.5603 22.7373 47.8378 22.7297C48.6544 22.7144 49.4789 22.722 50.2955 22.722C50.5492 22.722 50.676 22.6458 50.6681 22.3712C50.6602 19.572 50.6681 16.7805 50.6522 13.9814C50.6522 13.8136 50.5492 13.6229 50.4382 13.4856C49.3124 12.0822 48.1787 10.6941 47.045 9.29831C45.8716 7.85678 44.6824 6.41525 43.5091 4.97373C42.8669 4.18051 42.2247 3.38729 41.5826 2.59407C41.4161 2.38813 41.2258 2.28135 40.9245 2.28135C30.8321 2.28898 20.7397 2.28898 10.6474 2.28135C10.2827 2.28135 10.1241 2.35763 10.1479 2.73898C10.1796 3.28051 10.1558 3.82966 10.1558 4.41695C10.3223 4.41695 10.465 4.41695 10.5998 4.41695C13.1526 4.41695 15.6975 4.41695 18.2503 4.41695C18.8608 4.41695 19.1066 4.59237 19.1145 5.04237C19.1224 5.46186 18.7894 5.70593 18.2186 5.70593C17.0928 5.70593 15.975 5.69068 14.8492 5.6983C11.9793 5.6983 9.11724 5.70593 6.24729 5.70593C5.66062 5.70593 5.39107 5.49237 5.39899 5.05C5.39899 4.65339 5.63683 4.41695 6.05702 4.41695C6.87361 4.40932 7.69812 4.40169 8.51471 4.42457C8.80805 4.4322 8.91111 4.34068 8.89526 4.05847C8.87147 3.50932 8.9349 2.96017 8.8794 2.41864C8.81598 1.8161 9.46608 1.0839 10.1162 1.06101C10.1558 1.06101 10.1955 1.01525 10.2351 0.992371C20.6208 0.992371 31.0065 0.992371 41.3923 0.992371C41.8045 1.12966 42.2168 1.26695 42.4864 1.63305C42.8035 2.06017 43.1444 2.47203 43.4774 2.89152C44.6666 4.35593 45.8716 5.81271 47.0608 7.26949C48.0677 8.50508 49.0745 9.74068 50.0656 10.9839C50.7236 11.8153 51.3657 12.6619 52.0158 13.5008C52.0158 16.628 52.0158 19.7551 52.0158 22.8822C51.6749 23.6907 51.0645 24.011 50.1607 23.9576C49.2965 23.9119 48.4244 23.95 47.5207 23.95C47.481 24.1102 47.4572 24.2703 47.4097 24.4153C46.9419 26.0017 45.9509 27.1305 44.3177 27.6797C43.8658 27.8322 43.3743 27.8856 42.8986 27.9924C42.7638 27.9924 42.637 27.9924 42.5022 27.9924C42.4467 27.9695 42.3991 27.9237 42.3436 27.9161C41.0672 27.8551 40.0287 27.3212 39.1645 26.4288C38.4906 25.7271 38.118 24.9034 37.9436 23.9653C33.0916 23.9653 28.2635 23.9653 23.4273 23.9653C23.3877 24.1025 23.356 24.2322 23.3164 24.3619C22.8962 25.9941 21.8655 27.1153 20.2244 27.6797C19.7725 27.8398 19.2731 27.8856 18.7974 27.9924C18.7736 27.9924 18.7419 27.9924 18.7181 27.9924C18.5992 27.9695 18.4723 27.9237 18.3534 27.9161C16.8391 27.8932 15.6975 27.1992 14.7779 26.1009C14.2546 25.4754 13.993 24.7356 13.8503 23.95C12.6611 23.95 11.5036 23.95 10.3382 23.95C9.49779 23.95 8.88733 23.3627 8.88733 22.5542C8.88733 19.9153 8.8794 17.2763 8.89526 14.6297C8.89526 14.2712 8.78427 14.1797 8.4275 14.1797C5.89053 14.1949 3.36149 14.1797 0.824516 14.1949C0.459826 14.1949 0.206129 14.0881 0.00792804 13.8059C0 13.661 0 13.5085 0 13.3559ZM39.2359 23.3093C39.1645 25.2085 40.8215 26.6729 42.6687 26.6958C44.6269 26.7186 46.2046 25.1627 46.2125 23.3627C46.2205 21.4941 44.6666 20.0602 42.8431 19.9763C40.8849 19.8847 39.1249 21.5703 39.2359 23.3093ZM15.1426 23.3398C15.1029 25.2085 16.7361 26.6729 18.5754 26.6958C20.5574 26.7186 22.0796 25.1703 22.1192 23.4009C22.1668 21.5093 20.5098 20.022 18.7102 19.9763C16.7837 19.9229 15.0633 21.517 15.1426 23.3398Z" fill="#4B7C9B"/>
<path d="M41.099 14.1949C39.3865 14.1949 37.6661 14.2025 35.9537 14.1949C34.8913 14.1949 34.4235 13.5695 34.4156 12.7076C34.3998 10.0915 34.4077 7.47542 34.4077 4.85932C34.4077 4.05847 34.9706 3.29576 35.9537 3.34915C37.1666 3.41779 38.3876 3.41017 39.5926 3.34915C40.4092 3.30339 40.9087 3.64661 41.3685 4.2339C42.6053 5.83559 43.8738 7.40678 45.1264 8.99322C45.9271 10 46.7358 10.9992 47.5365 12.0059C47.9012 12.4636 47.9488 12.9746 47.6951 13.4856C47.4335 14.0119 46.934 14.1949 46.3711 14.1949C44.6111 14.2025 42.8511 14.1949 41.099 14.1949ZM35.7634 12.8831C39.3548 12.8831 42.9145 12.8831 46.5138 12.8831C46.4662 12.7915 46.4425 12.7229 46.3949 12.6695C45.832 11.9678 45.2532 11.2661 44.6904 10.5644C43.1999 8.67288 41.7015 6.79661 40.211 4.90508C40.0366 4.6839 39.8622 4.56949 39.5609 4.57712C38.8236 4.6 38.0863 4.58474 37.3411 4.58474C36.8178 4.58474 36.2946 4.58474 35.7555 4.58474C35.7634 7.36864 35.7634 10.1068 35.7634 12.8831Z" fill="#4B7C9B"/>
<path d="M8.66535 8.55085C6.6437 8.55085 4.62997 8.55085 2.60832 8.55085C2.10886 8.55085 1.85516 8.36779 1.82345 7.99407C1.78381 7.52881 2.02958 7.26949 2.53697 7.26186C3.18707 7.25423 3.82924 7.26186 4.47934 7.26186C7.88047 7.26186 11.2895 7.26186 14.6907 7.26186C15.2298 7.26186 15.4914 7.43728 15.531 7.80339C15.5865 8.29915 15.3249 8.55847 14.7541 8.55847C12.8672 8.55847 10.9803 8.55847 9.09346 8.55847C8.95868 8.55085 8.80805 8.55085 8.66535 8.55085Z" fill="#4B7C9B"/>
<path d="M10.8297 11.3729C8.78427 11.3729 6.73883 11.3729 4.6934 11.3729C4.32078 11.3729 4.05915 11.1898 4.00366 10.8771C3.97195 10.6712 4.11465 10.3966 4.26528 10.2288C4.3842 10.1068 4.64583 10.0839 4.84403 10.0839C8.85562 10.0763 12.8672 10.0763 16.8709 10.0763C17.402 10.0763 17.7509 10.3508 17.743 10.7398C17.743 11.1136 17.3862 11.3653 16.8709 11.3653C14.8651 11.3729 12.8514 11.3729 10.8297 11.3729Z" fill="#4B7C9B"/>
</svg>
