<svg width="9" height="6" viewBox="0 0 9 6" fill="none" xmlns="http://www.w3.org/2000/svg">
<path fill-rule="evenodd" clip-rule="evenodd" d="M0.0440161 0.289096C0.0835192 0.202975 0.147572 0.129873 0.228468 0.0785854C0.309365 0.0272975 0.403659 8.09291e-06 0.500008 1.75329e-08H8.49988C8.59625 -2.52445e-05 8.69059 0.0272488 8.77152 0.0785387C8.85245 0.129829 8.91653 0.202948 8.95604 0.289096C8.99556 0.375245 9.00883 0.470749 8.99425 0.564114C8.97967 0.657479 8.93786 0.744725 8.87387 0.815349L4.87393 5.22529C4.82702 5.27711 4.76943 5.31858 4.70497 5.34699C4.6405 5.37539 4.57062 5.39008 4.49994 5.39008C4.42926 5.39008 4.35938 5.37539 4.29491 5.34699C4.23045 5.31858 4.17286 5.27711 4.12595 5.22529L0.126015 0.815349C0.0620481 0.744706 0.0202772 0.657452 0.00572955 0.564088C-0.0088181 0.470724 0.00447744 0.375229 0.0440161 0.289096Z" fill="#203655"/>
</svg>
