<svg width="24" height="18" viewBox="0 0 24 18" fill="none" xmlns="http://www.w3.org/2000/svg">
<path fill-rule="evenodd" clip-rule="evenodd" d="M0 3C0 2.20435 0.316071 1.44129 0.87868 0.87868C1.44129 0.31607 2.20435 0 3 0H21C21.7956 0 22.5587 0.31607 23.1213 0.87868C23.6839 1.44129 24 2.20435 24 3V15C24 15.7956 23.6839 16.5587 23.1213 17.1213C22.5587 17.6839 21.7956 18 21 18H3C2.20435 18 1.44129 17.6839 0.87868 17.1213C0.316071 16.5587 0 15.7956 0 15V3ZM3 1.5C2.60218 1.5 2.22064 1.65804 1.93934 1.93934C1.65804 2.22064 1.5 2.60218 1.5 3V3.3255L12 9.6255L22.5 3.3255V3C22.5 2.60218 22.342 2.22064 22.0607 1.93934C21.7794 1.65804 21.3978 1.5 21 1.5H3ZM22.5 5.0745L15.363 9.357L22.5 13.671V5.0745ZM22.449 15.3915L13.9065 10.23L12 11.3745L10.092 10.23L1.551 15.39C1.6368 15.7086 1.82527 15.9901 2.08723 16.1908C2.34919 16.3914 2.67001 16.5001 3 16.5H21C21.3298 16.5002 21.6505 16.3917 21.9124 16.1914C22.1743 15.991 22.3629 15.7099 22.449 15.3915ZM1.5 13.671L8.637 9.357L1.5 5.0745V13.671Z" fill="#203655"/>
</svg>
