<svg width="28" height="43" viewBox="0 0 28 43" fill="none" xmlns="http://www.w3.org/2000/svg">
<path d="M14.5916 0.604854C15.7911 1.01118 16.6948 1.69382 17.1385 2.9128C17.2042 3.10784 17.6808 3.23787 17.9765 3.25412C19.2747 3.30288 19.5704 3.51417 19.8662 4.83068C20.5071 4.83068 21.1808 4.83068 21.8545 4.83068C23.5305 4.83068 25.1902 4.83068 26.8662 4.83068C27.9343 4.83068 27.9836 4.87943 27.9836 5.91964C27.9836 12.3884 27.9836 18.8572 27.9836 25.3097C27.9836 30.5594 27.9836 35.8092 27.9671 41.059C27.9671 41.449 27.8521 41.8391 27.7864 42.2292H0.197183C0.131455 41.8716 0.0164319 41.4978 0.0164319 41.1402C0 29.4054 0 17.6707 0 5.91964C0 4.87943 0.0492958 4.83068 1.11737 4.83068C3.43427 4.83068 5.75118 4.83068 8.05165 4.83068C8.52817 3.4004 8.6432 3.33538 10.1714 3.27037C10.4178 3.25412 10.7958 3.10784 10.8615 2.92906C11.3052 1.69382 12.2089 1.02744 13.4085 0.621107C13.8357 0.474829 14.1643 0.474829 14.5916 0.604854ZM8.11737 8.03255H3.22066V39.0273H24.7465V8.0488H19.8333C19.669 9.59285 19.8991 9.52784 18.1573 9.54409C15.3967 9.54409 12.6197 9.54409 9.85916 9.54409C8.34742 9.52784 8.34742 9.52784 8.11737 8.03255ZM26.8005 41.0752V6.0009H19.8498V6.84607C21.5258 6.84607 23.1362 6.84607 24.7465 6.84607C25.8474 6.84607 25.946 6.94359 25.946 7.98379C25.946 18.337 25.946 28.6741 25.946 39.0273C25.946 40.1163 25.8803 40.1813 24.7794 40.1813C17.5986 40.1813 10.4343 40.1813 3.25352 40.1813C2.10329 40.1813 2.05399 40.1325 2.05399 38.9786C2.05399 28.6903 2.05399 18.3858 2.05399 8.09756C2.05399 6.91108 2.11972 6.84607 3.28639 6.84607C4.89672 6.84607 6.50704 6.84607 8.15024 6.84607V6.0009H1.1831V41.0752H26.8005ZM18.5845 8.35761V4.40809C18.0094 4.40809 17.4836 4.39184 16.9742 4.40809C16.4648 4.42435 16.1855 4.27807 16.0869 3.70921C15.9061 2.47397 15.1174 1.79133 14.0329 1.77508C12.9155 1.75883 12.0939 2.45771 11.8967 3.70921C11.8146 4.27807 11.5352 4.42435 11.0094 4.40809C10.4671 4.39184 9.94132 4.40809 9.3662 4.40809V8.35761H18.5845Z" fill="#4B7C9B"/>
<path d="M16.2676 16.0941C14.4272 16.0941 12.6033 16.0941 10.7629 16.0941C10.3192 16.0941 9.76055 16.1266 9.84271 15.509C9.87557 15.2977 10.4343 14.9889 10.7465 14.9889C14.4436 14.9564 18.1244 14.9727 21.8216 14.9727C22.2817 14.9727 22.7911 14.9727 22.7582 15.574C22.7418 16.1266 22.2324 16.0941 21.8216 16.0941C19.9812 16.0941 18.1244 16.0941 16.2676 16.0941Z" fill="#4B7C9B"/>
<path d="M16.2676 32.331C14.4273 32.331 12.6033 32.331 10.7629 32.331C10.3193 32.331 9.79345 32.3635 9.80989 31.7459C9.82632 31.1933 10.3028 31.2095 10.7301 31.2095C14.4273 31.2095 18.108 31.2095 21.8052 31.2095C22.2488 31.2095 22.7747 31.1933 22.7582 31.7947C22.7418 32.3473 22.2653 32.331 21.838 32.331C19.9977 32.331 18.1409 32.331 16.2676 32.331Z" fill="#4B7C9B"/>
<path d="M16.3826 25.7972C18.2066 25.7972 20.047 25.7972 21.8709 25.7972C22.2981 25.7972 22.8075 25.7972 22.7418 26.3499C22.7089 26.5774 22.1831 26.9025 21.8709 26.9025C18.1573 26.935 14.4272 26.9187 10.7136 26.935C10.2864 26.935 9.80988 26.9187 9.80988 26.3661C9.80988 25.7972 10.2864 25.8135 10.7136 25.8135C12.6033 25.7972 14.493 25.7972 16.3826 25.7972Z" fill="#4B7C9B"/>
<path d="M16.3005 20.385C18.1573 20.385 20.0141 20.385 21.8709 20.385C22.2981 20.385 22.7747 20.4012 22.7747 20.9538C22.7747 21.5227 22.2817 21.5064 21.8545 21.5064C18.1409 21.5064 14.4272 21.5064 10.7136 21.5064C10.2864 21.5064 9.80988 21.5227 9.80988 20.9538C9.80988 20.385 10.3028 20.4012 10.7136 20.4012C12.5869 20.385 14.4437 20.385 16.3005 20.385Z" fill="#4B7C9B"/>
<path d="M6.91784 15.9641C7.34507 15.2327 7.69014 14.5501 8.1338 13.9324C8.28168 13.7374 8.64319 13.6886 8.92253 13.5749C8.98826 13.8674 9.18544 14.2413 9.08685 14.4525C8.69248 15.2815 8.18309 16.0616 7.723 16.858C7.47652 17.2806 7.14788 17.4269 6.70422 17.1506C6.32629 16.923 5.89906 16.7605 5.58685 16.4842C5.4061 16.3217 5.37324 15.9641 5.29108 15.6878C5.57042 15.639 5.86619 15.5253 6.14554 15.5578C6.37558 15.6065 6.60563 15.8016 6.91784 15.9641Z" fill="#4B7C9B"/>
<path d="M6.91783 21.3601C7.3122 20.6938 7.64083 20.0436 8.06806 19.4585C8.24881 19.2147 8.64318 19.1497 8.95539 19.0034C8.98825 19.3285 9.15257 19.7186 9.02111 19.9786C8.64318 20.7588 8.16666 21.4739 7.73943 22.2378C7.44365 22.7579 7.08215 22.8392 6.58919 22.5141C6.24413 22.2866 5.83333 22.1565 5.55399 21.8802C5.37324 21.7014 5.37324 21.3439 5.29108 21.0838C5.55399 21.0351 5.83333 20.905 6.07981 20.9538C6.35915 21.0026 6.60563 21.1976 6.91783 21.3601Z" fill="#4B7C9B"/>
<path d="M6.91786 32.2172C7.34509 31.5021 7.67372 30.8195 8.11738 30.2019C8.26527 29.9906 8.67607 29.9581 8.95541 29.8443C8.98827 30.1531 9.15259 30.5107 9.03757 30.7545C8.6432 31.5509 8.15025 32.2985 7.70659 33.0787C7.44368 33.55 7.09861 33.6638 6.62208 33.3712C6.29345 33.1762 5.91551 33.0462 5.6526 32.7861C5.43899 32.5911 5.37326 32.2335 5.25824 31.9572C5.57045 31.9084 5.88265 31.8109 6.17842 31.8434C6.40847 31.8597 6.62208 32.0547 6.91786 32.2172Z" fill="#4B7C9B"/>
<path d="M6.91784 26.8049C7.32863 26.1061 7.6737 25.4234 8.11736 24.8221C8.28167 24.6108 8.67603 24.5458 8.95538 24.432C9.00467 24.7408 9.18542 25.0984 9.0704 25.3422C8.67604 26.1711 8.16665 26.935 7.70656 27.7314C7.47652 28.1214 7.16431 28.2515 6.75352 28.0239C6.34272 27.7964 5.9155 27.6013 5.57043 27.3088C5.38968 27.1625 5.37325 26.8212 5.27466 26.5774C5.554 26.4961 5.84977 26.3498 6.11268 26.3824C6.34272 26.3986 6.57277 26.6099 6.91784 26.8049Z" fill="#4B7C9B"/>
<path d="M15.561 3.35166C15.3639 2.73404 14.7723 2.27895 14.115 2.24645C13.0962 2.18143 12.2746 2.99409 12.3568 4.00178C12.4061 4.6194 12.8333 5.15576 13.4085 5.3833C14.6901 5.85464 15.9718 4.63566 15.561 3.35166ZM14 4.53814C13.6385 4.53814 13.3427 4.24558 13.3427 3.88801C13.3427 3.53044 13.6385 3.23789 14 3.23789C14.3615 3.23789 14.6573 3.53044 14.6573 3.88801C14.6573 4.24558 14.3615 4.53814 14 4.53814Z" fill="#4B7C9B"/>
</svg>
