<svg width="23" height="21" viewBox="0 0 23 21" fill="none" xmlns="http://www.w3.org/2000/svg">
<path d="M0 10.3339C0.173698 9.93167 0.485156 9.80343 0.928385 9.80343C5.44453 9.81509 9.95468 9.80926 14.4708 9.80926C14.5607 9.80926 14.6505 9.80926 14.7943 9.80926C14.7104 9.72183 14.6565 9.66937 14.6026 9.61691C12.7099 7.775 10.8112 5.92726 8.91848 4.08534C8.73281 3.90465 8.60703 3.71229 8.63697 3.45C8.66692 3.18187 8.81067 2.98369 9.06223 2.87877C9.3138 2.76802 9.55937 2.803 9.78098 2.9662C9.84687 3.01283 9.90078 3.07112 9.96067 3.12941C12.2846 5.391 14.6086 7.65259 16.9325 9.91418C17.3638 10.3339 17.3638 10.6952 16.9325 11.1149C14.5966 13.3882 12.2607 15.6556 9.93072 17.9288C9.70911 18.1445 9.46354 18.2669 9.14609 18.1737C8.64895 18.0338 8.46328 17.4567 8.7927 17.0662C8.84661 17.0021 8.90651 16.9496 8.9664 16.8913C10.8411 15.0669 12.7159 13.2425 14.5906 11.4239C14.6505 11.3656 14.7224 11.3306 14.7883 11.2781C14.7763 11.2548 14.7643 11.2315 14.7523 11.2082C14.6685 11.2082 14.5846 11.2082 14.5008 11.2082C9.97864 11.2082 5.45651 11.2024 0.934375 11.214C0.491146 11.214 0.185677 11.08 0.00598958 10.6836C0 10.567 0 10.4504 0 10.3339Z" fill="#203655"/>
<path d="M23 17.241C22.9581 17.4217 22.9221 17.6083 22.8742 17.789C22.407 19.6658 20.7 20.989 18.7115 20.9948C17.0523 21.0065 15.3872 20.9948 13.7281 20.9948C13.255 20.9948 12.9315 20.6975 12.9375 20.2837C12.9435 19.8815 13.2669 19.5959 13.7281 19.5959C15.3453 19.5959 16.9625 19.5959 18.5797 19.5959C20.3167 19.5959 21.5625 18.3835 21.5625 16.6873C21.5625 12.5663 21.5625 8.43949 21.5625 4.3185C21.5625 2.6223 20.3227 1.40991 18.5797 1.40991C16.9565 1.40991 15.3333 1.40991 13.7042 1.40991C13.1531 1.40991 12.7938 0.93777 12.9854 0.465633C13.0992 0.18002 13.3268 0.0168124 13.6383 0.0168124C15.4052 0.0109836 17.1721 -0.0239895 18.9391 0.0284701C20.9635 0.0867585 22.6945 1.67803 22.9581 3.6307C22.9641 3.67733 22.988 3.72396 23 3.77059C23 8.26462 23 12.7528 23 17.241Z" fill="#203655"/>
</svg>
