<svg width="282" height="68" viewBox="0 0 282 68" fill="none" xmlns="http://www.w3.org/2000/svg">
<path d="M78.2835 58.4826V58.6241C78.2835 59.1362 78.2363 59.6079 78.142 60.0392C78.0477 60.4659 77.9062 60.8365 77.7175 61.151C77.5333 61.4654 77.302 61.7103 77.0234 61.8854C76.7494 62.0562 76.4305 62.1415 76.0666 62.1415C75.7521 62.1415 75.4759 62.0943 75.2378 62C74.9997 61.9012 74.7976 61.7597 74.6313 61.5755C74.4651 61.3913 74.3349 61.1712 74.2405 60.9151C74.1462 60.6546 74.0811 60.3626 74.0451 60.0392V56.8048C74.0811 56.4589 74.1462 56.1489 74.2405 55.8749C74.3349 55.6009 74.4629 55.3673 74.6246 55.1741C74.7908 54.981 74.9907 54.8327 75.2243 54.7294C75.4624 54.6261 75.7387 54.5744 76.0531 54.5744C76.3496 54.5744 76.6169 54.6373 76.855 54.7631C77.0931 54.8844 77.302 55.0596 77.4816 55.2887C77.6613 55.5178 77.8096 55.794 77.9264 56.1175C78.0432 56.4364 78.1308 56.7958 78.1892 57.1956C78.2521 57.5954 78.2835 58.0244 78.2835 58.4826ZM77.0976 58.6241V58.4826C77.0976 58.1682 77.0796 57.8694 77.0437 57.5864C77.0122 57.2989 76.9605 57.0361 76.8887 56.798C76.8213 56.5555 76.7314 56.3443 76.6191 56.1646C76.5113 55.985 76.3788 55.8457 76.2216 55.7469C76.0688 55.648 75.8892 55.5986 75.6825 55.5986C75.4714 55.5986 75.2917 55.6323 75.1435 55.6997C74.9997 55.7671 74.8852 55.8569 74.7998 55.9692C74.7145 56.0771 74.6516 56.1916 74.6111 56.3129V60.5378C74.6605 60.6366 74.7279 60.731 74.8133 60.8208C74.8986 60.9062 75.0109 60.978 75.1502 61.0364C75.2939 61.0903 75.4759 61.1173 75.696 61.1173C75.9476 61.1173 76.1609 61.0544 76.3361 60.9286C76.5158 60.7983 76.6618 60.6187 76.7741 60.3896C76.8864 60.1604 76.9673 59.8954 77.0167 59.5944C77.0706 59.2935 77.0976 58.97 77.0976 58.6241ZM70.9657 58.6241V58.4826C70.9657 58.0244 70.9949 57.5954 71.0533 57.1956C71.1162 56.7958 71.2061 56.4364 71.3229 56.1175C71.4441 55.794 71.5946 55.5178 71.7743 55.2887C71.954 55.0596 72.1606 54.8844 72.3942 54.7631C72.6323 54.6373 72.8996 54.5744 73.1961 54.5744C73.5016 54.5744 73.7688 54.6261 73.9979 54.7294C74.2271 54.8327 74.4202 54.981 74.5774 55.1741C74.7392 55.3673 74.8672 55.6009 74.9615 55.8749C75.0559 56.1489 75.1188 56.4589 75.1502 56.8048V59.9111C75.1143 60.2525 75.0491 60.5603 74.9548 60.8343C74.8649 61.1083 74.7392 61.3441 74.5774 61.5418C74.4202 61.735 74.2271 61.8832 73.9979 61.9865C73.7688 62.0898 73.4993 62.1415 73.1894 62.1415C72.8255 62.1415 72.5043 62.0562 72.2258 61.8854C71.9518 61.7103 71.7204 61.4654 71.5317 61.151C71.3431 60.8365 71.2016 60.4659 71.1072 60.0392C71.0129 59.6079 70.9657 59.1362 70.9657 58.6241ZM72.1584 58.4826V58.6241C72.1584 58.97 72.1809 59.2935 72.2258 59.5944C72.2707 59.8954 72.3448 60.1604 72.4481 60.3896C72.5515 60.6187 72.6885 60.7983 72.8592 60.9286C73.0299 61.0544 73.241 61.1173 73.4926 61.1173C73.7172 61.1173 73.9014 61.0836 74.0451 61.0162C74.1889 60.9488 74.3012 60.8612 74.382 60.7534C74.4674 60.6456 74.5348 60.5333 74.5842 60.4165V56.3129C74.5438 56.1916 74.4809 56.0771 74.3955 55.9692C74.3102 55.8569 74.1934 55.7671 74.0451 55.6997C73.9014 55.6323 73.7217 55.5986 73.5061 55.5986C73.25 55.5986 73.0344 55.675 72.8592 55.8277C72.6885 55.9805 72.5515 56.1894 72.4481 56.4544C72.3448 56.7194 72.2707 57.0271 72.2258 57.3775C72.1809 57.7234 72.1584 58.0918 72.1584 58.4826ZM73.9777 64.8031V51.65H75.1637V64.8031H73.9777ZM83.4315 60.7534V56.798C83.4315 56.5105 83.3866 56.2792 83.2968 56.104C83.2114 55.9288 83.0812 55.8008 82.906 55.7199C82.7353 55.6391 82.5196 55.5986 82.2591 55.5986C82.0075 55.5986 81.7896 55.6503 81.6055 55.7536C81.4258 55.8569 81.2865 55.9939 81.1877 56.1646C81.0934 56.3354 81.0462 56.524 81.0462 56.7307H79.8535C79.8535 56.4701 79.9097 56.2118 80.022 55.9558C80.1388 55.6997 80.305 55.4684 80.5206 55.2617C80.7362 55.0506 80.9945 54.8844 81.2955 54.7631C81.601 54.6373 81.9424 54.5744 82.3197 54.5744C82.7689 54.5744 83.1665 54.6485 83.5124 54.7968C83.8583 54.9405 84.1301 55.1764 84.3277 55.5043C84.5254 55.8322 84.6242 56.268 84.6242 56.8115V60.4098C84.6242 60.6523 84.6422 60.9106 84.6781 61.1847C84.7186 61.4587 84.7747 61.6945 84.8466 61.8922V62H83.6135C83.5551 61.8562 83.5102 61.6653 83.4787 61.4272C83.4473 61.1847 83.4315 60.9601 83.4315 60.7534ZM83.6202 57.5797L83.6337 58.4557H82.8049C82.5219 58.4557 82.2636 58.4871 82.03 58.55C81.8009 58.6129 81.6032 58.705 81.437 58.8263C81.2708 58.9431 81.1428 59.0891 81.0529 59.2643C80.9676 59.4395 80.9249 59.6394 80.9249 59.864C80.9249 60.156 80.9653 60.3896 81.0462 60.5647C81.1271 60.7354 81.2483 60.859 81.4101 60.9354C81.5718 61.0117 81.7762 61.0499 82.0232 61.0499C82.3242 61.0499 82.5893 60.9803 82.8184 60.841C83.0475 60.7018 83.2249 60.5333 83.3507 60.3356C83.481 60.138 83.5416 59.9538 83.5326 59.7831L83.7954 60.3424C83.7774 60.5176 83.719 60.7085 83.6202 60.9151C83.5259 61.1173 83.3934 61.3127 83.2227 61.5014C83.052 61.6855 82.8498 61.8383 82.6162 61.9596C82.3871 62.0764 82.1288 62.1348 81.8413 62.1348C81.419 62.1348 81.0484 62.0539 80.7295 61.8922C80.415 61.7305 80.1702 61.4924 79.995 61.1779C79.8198 60.8635 79.7322 60.4749 79.7322 60.0122C79.7322 59.6618 79.7929 59.3384 79.9142 59.0419C80.0354 58.7454 80.2151 58.4894 80.4532 58.2737C80.6913 58.0536 80.99 57.8829 81.3494 57.7616C81.7133 57.6403 82.1333 57.5797 82.6095 57.5797H83.6202ZM90.3922 51.5354H91.3558C91.3558 51.9757 91.2951 52.3261 91.1738 52.5866C91.057 52.8427 90.8998 53.0403 90.7021 53.1796C90.5045 53.3188 90.2844 53.4244 90.0418 53.4963C89.7992 53.5682 89.5521 53.6378 89.3006 53.7052C88.9861 53.786 88.6919 53.9141 88.4179 54.0893C88.1438 54.26 87.908 54.5025 87.7104 54.817C87.5172 55.1314 87.3757 55.5402 87.2858 56.0434C87.2005 56.5465 87.1848 57.1687 87.2387 57.9099V58.5298H86.2684V57.9099C86.2684 57.0788 86.3357 56.3533 86.4705 55.7334C86.6053 55.1135 86.7962 54.5901 87.0433 54.1634C87.2903 53.7366 87.5823 53.3975 87.9192 53.1459C88.2562 52.8943 88.629 52.7214 89.0378 52.6271C89.2983 52.5597 89.5297 52.4878 89.7318 52.4114C89.9385 52.3306 90.1002 52.2228 90.217 52.088C90.3338 51.9532 90.3922 51.769 90.3922 51.5354ZM89.2534 55.127C89.6532 55.127 90.0081 55.2101 90.3181 55.3763C90.628 55.5425 90.8908 55.7738 91.1064 56.0703C91.3221 56.3668 91.486 56.7172 91.5983 57.1215C91.7106 57.5213 91.7668 57.957 91.7668 58.4287V58.577C91.7668 59.0846 91.7062 59.5562 91.5849 59.992C91.4636 60.4232 91.2839 60.8006 91.0458 61.124C90.8122 61.443 90.5247 61.6923 90.1833 61.872C89.8419 62.0517 89.4533 62.1415 89.0176 62.1415C88.5818 62.1415 88.1933 62.0517 87.8519 61.872C87.5149 61.6923 87.2274 61.443 86.9894 61.124C86.7558 60.8006 86.5761 60.4232 86.4503 59.992C86.329 59.5562 86.2684 59.0846 86.2684 58.577V58.4287C86.2684 58.3164 86.2886 58.2063 86.329 58.0985C86.3694 57.9907 86.4166 57.8807 86.4705 57.7684C86.5244 57.6561 86.5738 57.537 86.6188 57.4112C86.758 57.0069 86.9512 56.6318 87.1982 56.2859C87.4453 55.94 87.7396 55.6615 88.081 55.4504C88.4269 55.2348 88.8177 55.127 89.2534 55.127ZM89.0108 56.1444C88.647 56.1444 88.3505 56.25 88.1214 56.4611C87.8968 56.6723 87.7306 56.953 87.6228 57.3034C87.5149 57.6493 87.461 58.0244 87.461 58.4287V58.577C87.461 58.9184 87.4902 59.2418 87.5486 59.5473C87.607 59.8527 87.6991 60.1245 87.8249 60.3626C87.9507 60.5962 88.1124 60.7804 88.3101 60.9151C88.5077 61.0499 88.7436 61.1173 89.0176 61.1173C89.2916 61.1173 89.5252 61.0499 89.7184 60.9151C89.916 60.7804 90.0777 60.5962 90.2035 60.3626C90.3293 60.1245 90.4214 59.8527 90.4798 59.5473C90.5427 59.2418 90.5741 58.9184 90.5741 58.577V58.4287C90.5741 58.1232 90.5427 57.8335 90.4798 57.5595C90.4214 57.2854 90.3293 57.0429 90.2035 56.8317C90.0777 56.6206 89.916 56.4544 89.7184 56.3331C89.5207 56.2073 89.2849 56.1444 89.0108 56.1444ZM94.2465 56.1107V64.8031H93.0538V54.7092H94.1387L94.2465 56.1107ZM98.3231 58.0244V58.705C98.3231 59.28 98.2692 59.7831 98.1614 60.2144C98.0581 60.6411 97.9031 60.9982 97.6965 61.2857C97.4943 61.5687 97.245 61.7821 96.9485 61.9259C96.6521 62.0651 96.3129 62.1348 95.9311 62.1348C95.5492 62.1348 95.2168 62.0629 94.9338 61.9191C94.6553 61.7709 94.4194 61.5575 94.2263 61.279C94.0376 61.0005 93.8871 60.6658 93.7748 60.275C93.667 59.8797 93.5929 59.4372 93.5524 58.9476V57.9099C93.5929 57.3933 93.667 56.9306 93.7748 56.5218C93.8826 56.1085 94.0309 55.7581 94.2195 55.4706C94.4127 55.1786 94.6485 54.9562 94.9271 54.8035C95.2101 54.6508 95.5402 54.5744 95.9176 54.5744C96.3084 54.5744 96.6521 54.6418 96.9485 54.7766C97.2495 54.9113 97.5011 55.1202 97.7032 55.4032C97.9099 55.6817 98.0648 56.0389 98.1682 56.4746C98.2715 56.9059 98.3231 57.4225 98.3231 58.0244ZM97.1305 58.705V58.0244C97.1305 57.6201 97.099 57.2675 97.0361 56.9665C96.9777 56.6655 96.8834 56.4162 96.7531 56.2186C96.6229 56.0209 96.4589 55.8727 96.2612 55.7738C96.0636 55.675 95.8255 55.6256 95.547 55.6256C95.3089 55.6256 95.0978 55.675 94.9136 55.7738C94.7339 55.8727 94.5789 56.0074 94.4486 56.1781C94.3184 56.3443 94.2105 56.5353 94.1252 56.7509C94.0398 56.962 93.977 57.1821 93.9365 57.4112V59.4529C94.0129 59.7404 94.114 60.0122 94.2397 60.2683C94.3655 60.5198 94.534 60.7242 94.7451 60.8814C94.9607 61.0387 95.2325 61.1173 95.5604 61.1173C95.8345 61.1173 96.0703 61.0679 96.268 60.969C96.4656 60.8702 96.6273 60.722 96.7531 60.5243C96.8834 60.3222 96.9777 60.0706 97.0361 59.7696C97.099 59.4642 97.1305 59.1093 97.1305 58.705ZM101.153 60.0257L103.795 54.7092H104.987V62H103.795V56.6835L101.153 62H99.9673V54.7092H101.153V60.0257ZM108.195 54.7092V62H107.002V54.7092H108.195ZM112.204 54.7092L109.273 58.8869H107.797L107.608 57.7953H108.788L110.775 54.7092H112.204ZM110.883 62L108.747 58.6982L109.509 57.7953L112.379 62H110.883ZM117.096 60.7534V56.798C117.096 56.5105 117.051 56.2792 116.961 56.104C116.876 55.9288 116.746 55.8008 116.57 55.7199C116.4 55.6391 116.184 55.5986 115.924 55.5986C115.672 55.5986 115.454 55.6503 115.27 55.7536C115.09 55.8569 114.951 55.9939 114.852 56.1646C114.758 56.3354 114.711 56.524 114.711 56.7307H113.518C113.518 56.4701 113.574 56.2118 113.686 55.9558C113.803 55.6997 113.969 55.4684 114.185 55.2617C114.401 55.0506 114.659 54.8844 114.96 54.7631C115.265 54.6373 115.607 54.5744 115.984 54.5744C116.433 54.5744 116.831 54.6485 117.177 54.7968C117.523 54.9405 117.795 55.1764 117.992 55.5043C118.19 55.8322 118.289 56.268 118.289 56.8115V60.4098C118.289 60.6523 118.307 60.9106 118.343 61.1847C118.383 61.4587 118.439 61.6945 118.511 61.8922V62H117.278C117.22 61.8562 117.175 61.6653 117.143 61.4272C117.112 61.1847 117.096 60.9601 117.096 60.7534ZM117.285 57.5797L117.298 58.4557H116.469C116.186 58.4557 115.928 58.4871 115.694 58.55C115.465 58.6129 115.268 58.705 115.101 58.8263C114.935 58.9431 114.807 59.0891 114.717 59.2643C114.632 59.4395 114.589 59.6394 114.589 59.864C114.589 60.156 114.63 60.3896 114.711 60.5647C114.792 60.7354 114.913 60.859 115.075 60.9354C115.236 61.0117 115.441 61.0499 115.688 61.0499C115.989 61.0499 116.254 60.9803 116.483 60.841C116.712 60.7018 116.889 60.5333 117.015 60.3356C117.145 60.138 117.206 59.9538 117.197 59.7831L117.46 60.3424C117.442 60.5176 117.383 60.7085 117.285 60.9151C117.19 61.1173 117.058 61.3127 116.887 61.5014C116.716 61.6855 116.514 61.8383 116.281 61.9596C116.052 62.0764 115.793 62.1348 115.506 62.1348C115.083 62.1348 114.713 62.0539 114.394 61.8922C114.079 61.7305 113.835 61.4924 113.659 61.1779C113.484 60.8635 113.397 60.4749 113.397 60.0122C113.397 59.6618 113.457 59.3384 113.579 59.0419C113.7 58.7454 113.88 58.4894 114.118 58.2737C114.356 58.0536 114.654 57.8829 115.014 57.7616C115.378 57.6403 115.798 57.5797 116.274 57.5797H117.285ZM125.93 54.7092V62H124.737V54.7092H125.93ZM127.918 54.7092V55.7199H122.776V54.7092H127.918ZM128.652 58.705V58.0109C128.652 57.4449 128.724 56.9485 128.868 56.5218C129.012 56.0905 129.211 55.7312 129.467 55.4437C129.724 55.1562 130.022 54.9405 130.364 54.7968C130.705 54.6485 131.071 54.5744 131.462 54.5744C131.862 54.5744 132.232 54.6485 132.574 54.7968C132.915 54.9405 133.214 55.1562 133.47 55.4437C133.731 55.7312 133.933 56.0905 134.076 56.5218C134.22 56.9485 134.292 57.4449 134.292 58.0109V58.705C134.292 59.271 134.22 59.7696 134.076 60.2009C133.933 60.6276 133.733 60.9848 133.477 61.2723C133.221 61.5598 132.922 61.7754 132.581 61.9191C132.239 62.0629 131.871 62.1348 131.475 62.1348C131.08 62.1348 130.712 62.0629 130.37 61.9191C130.029 61.7754 129.728 61.5598 129.467 61.2723C129.211 60.9848 129.012 60.6276 128.868 60.2009C128.724 59.7696 128.652 59.271 128.652 58.705ZM129.845 58.0109V58.705C129.845 59.1048 129.885 59.4552 129.966 59.7562C130.047 60.0571 130.162 60.3087 130.31 60.5108C130.458 60.713 130.631 60.8657 130.829 60.969C131.026 61.0679 131.242 61.1173 131.475 61.1173C131.745 61.1173 131.981 61.0679 132.183 60.969C132.39 60.8657 132.56 60.713 132.695 60.5108C132.83 60.3087 132.931 60.0571 132.998 59.7562C133.066 59.4552 133.099 59.1048 133.099 58.705V58.0109C133.099 57.6111 133.059 57.263 132.978 56.9665C132.897 56.6655 132.783 56.414 132.634 56.2118C132.486 56.0052 132.311 55.8524 132.109 55.7536C131.911 55.6503 131.696 55.5986 131.462 55.5986C131.233 55.5986 131.02 55.6503 130.822 55.7536C130.624 55.8524 130.451 56.0052 130.303 56.2118C130.159 56.414 130.047 56.6655 129.966 56.9665C129.885 57.263 129.845 57.6111 129.845 58.0109ZM137.021 56.1107V64.8031H135.828V54.7092H136.913L137.021 56.1107ZM141.098 58.0244V58.705C141.098 59.28 141.044 59.7831 140.936 60.2144C140.833 60.6411 140.678 60.9982 140.471 61.2857C140.269 61.5687 140.02 61.7821 139.723 61.9259C139.427 62.0651 139.088 62.1348 138.706 62.1348C138.324 62.1348 137.991 62.0629 137.708 61.9191C137.43 61.7709 137.194 61.5575 137.001 61.279C136.812 61.0005 136.662 60.6658 136.549 60.275C136.442 59.8797 136.367 59.4372 136.327 58.9476V57.9099C136.367 57.3933 136.442 56.9306 136.549 56.5218C136.657 56.1085 136.805 55.7581 136.994 55.4706C137.187 55.1786 137.423 54.9562 137.702 54.8035C137.985 54.6508 138.315 54.5744 138.692 54.5744C139.083 54.5744 139.427 54.6418 139.723 54.7766C140.024 54.9113 140.276 55.1202 140.478 55.4032C140.684 55.6817 140.839 56.0389 140.943 56.4746C141.046 56.9059 141.098 57.4225 141.098 58.0244ZM139.905 58.705V58.0244C139.905 57.6201 139.874 57.2675 139.811 56.9665C139.752 56.6655 139.658 56.4162 139.528 56.2186C139.397 56.0209 139.233 55.8727 139.036 55.7738C138.838 55.675 138.6 55.6256 138.322 55.6256C138.083 55.6256 137.872 55.675 137.688 55.7738C137.508 55.8727 137.354 56.0074 137.223 56.1781C137.093 56.3443 136.985 56.5353 136.9 56.7509C136.814 56.962 136.752 57.1821 136.711 57.4112V59.4529C136.788 59.7404 136.889 60.0122 137.014 60.2683C137.14 60.5198 137.309 60.7242 137.52 60.8814C137.735 61.0387 138.007 61.1173 138.335 61.1173C138.609 61.1173 138.845 61.0679 139.043 60.969C139.24 60.8702 139.402 60.722 139.528 60.5243C139.658 60.3222 139.752 60.0706 139.811 59.7696C139.874 59.4642 139.905 59.1093 139.905 58.705ZM146.643 54.7092V55.7401H143.921V62H142.728V54.7092H146.643ZM147.385 58.705V58.0109C147.385 57.4449 147.456 56.9485 147.6 56.5218C147.744 56.0905 147.944 55.7312 148.2 55.4437C148.456 55.1562 148.755 54.9405 149.096 54.7968C149.437 54.6485 149.804 54.5744 150.194 54.5744C150.594 54.5744 150.965 54.6485 151.306 54.7968C151.648 54.9405 151.946 55.1562 152.202 55.4437C152.463 55.7312 152.665 56.0905 152.809 56.5218C152.953 56.9485 153.025 57.4449 153.025 58.0109V58.705C153.025 59.271 152.953 59.7696 152.809 60.2009C152.665 60.6276 152.465 60.9848 152.209 61.2723C151.953 61.5598 151.654 61.7754 151.313 61.9191C150.972 62.0629 150.603 62.1348 150.208 62.1348C149.813 62.1348 149.444 62.0629 149.103 61.9191C148.761 61.7754 148.46 61.5598 148.2 61.2723C147.944 60.9848 147.744 60.6276 147.6 60.2009C147.456 59.7696 147.385 59.271 147.385 58.705ZM148.577 58.0109V58.705C148.577 59.1048 148.618 59.4552 148.699 59.7562C148.779 60.0571 148.894 60.3087 149.042 60.5108C149.19 60.713 149.363 60.8657 149.561 60.969C149.759 61.0679 149.974 61.1173 150.208 61.1173C150.477 61.1173 150.713 61.0679 150.915 60.969C151.122 60.8657 151.293 60.713 151.428 60.5108C151.562 60.3087 151.663 60.0571 151.731 59.7562C151.798 59.4552 151.832 59.1048 151.832 58.705V58.0109C151.832 57.6111 151.791 57.263 151.711 56.9665C151.63 56.6655 151.515 56.414 151.367 56.2118C151.219 56.0052 151.043 55.8524 150.841 55.7536C150.644 55.6503 150.428 55.5986 150.194 55.5986C149.965 55.5986 149.752 55.6503 149.554 55.7536C149.357 55.8524 149.184 56.0052 149.035 56.2118C148.892 56.414 148.779 56.6655 148.699 56.9665C148.618 57.263 148.577 57.6111 148.577 58.0109ZM157.499 58.7926H155.551L155.538 57.7953H157.101C157.411 57.7953 157.667 57.7571 157.869 57.6808C158.076 57.6044 158.231 57.4898 158.334 57.3371C158.438 57.1844 158.489 56.9957 158.489 56.7711C158.489 56.5959 158.46 56.4432 158.402 56.3129C158.343 56.1781 158.256 56.0681 158.139 55.9827C158.027 55.8929 157.885 55.8277 157.714 55.7873C157.544 55.7424 157.344 55.7199 157.115 55.7199H155.855V62H154.669V54.7092H157.115C157.51 54.7092 157.865 54.7496 158.179 54.8305C158.498 54.9113 158.768 55.0349 158.988 55.2011C159.213 55.3628 159.383 55.5694 159.5 55.821C159.621 56.0726 159.682 56.369 159.682 56.7104C159.682 56.9306 159.644 57.1395 159.567 57.3371C159.491 57.5348 159.376 57.71 159.224 57.8627C159.075 58.0154 158.891 58.1412 158.671 58.24C158.451 58.3344 158.197 58.395 157.91 58.422L157.499 58.7926ZM157.499 62H155.107L155.72 60.9893H157.499C157.773 60.9893 157.997 60.9466 158.173 60.8612C158.348 60.7714 158.478 60.6456 158.563 60.4839C158.653 60.3177 158.698 60.12 158.698 59.8909C158.698 59.6618 158.653 59.4664 158.563 59.3047C158.478 59.1385 158.348 59.0127 158.173 58.9273C157.997 58.8375 157.773 58.7926 157.499 58.7926H155.902L155.915 57.7953H157.89L158.307 58.1727C158.653 58.2041 158.943 58.3029 159.177 58.4691C159.415 58.6354 159.592 58.8465 159.709 59.1025C159.83 59.3541 159.891 59.6281 159.891 59.9246C159.891 60.266 159.837 60.567 159.729 60.8275C159.621 61.0881 159.464 61.306 159.257 61.4812C159.051 61.6519 158.799 61.7821 158.503 61.872C158.206 61.9573 157.872 62 157.499 62ZM161.265 58.705V58.0109C161.265 57.4449 161.337 56.9485 161.481 56.5218C161.625 56.0905 161.825 55.7312 162.081 55.4437C162.337 55.1562 162.636 54.9405 162.977 54.7968C163.318 54.6485 163.684 54.5744 164.075 54.5744C164.475 54.5744 164.846 54.6485 165.187 54.7968C165.529 54.9405 165.827 55.1562 166.083 55.4437C166.344 55.7312 166.546 56.0905 166.69 56.5218C166.833 56.9485 166.905 57.4449 166.905 58.0109V58.705C166.905 59.271 166.833 59.7696 166.69 60.2009C166.546 60.6276 166.346 60.9848 166.09 61.2723C165.834 61.5598 165.535 61.7754 165.194 61.9191C164.852 62.0629 164.484 62.1348 164.089 62.1348C163.693 62.1348 163.325 62.0629 162.984 61.9191C162.642 61.7754 162.341 61.5598 162.081 61.2723C161.825 60.9848 161.625 60.6276 161.481 60.2009C161.337 59.7696 161.265 59.271 161.265 58.705ZM162.458 58.0109V58.705C162.458 59.1048 162.499 59.4552 162.579 59.7562C162.66 60.0571 162.775 60.3087 162.923 60.5108C163.071 60.713 163.244 60.8657 163.442 60.969C163.64 61.0679 163.855 61.1173 164.089 61.1173C164.358 61.1173 164.594 61.0679 164.796 60.969C165.003 60.8657 165.174 60.713 165.308 60.5108C165.443 60.3087 165.544 60.0571 165.612 59.7562C165.679 59.4552 165.713 59.1048 165.713 58.705V58.0109C165.713 57.6111 165.672 57.263 165.591 56.9665C165.511 56.6655 165.396 56.414 165.248 56.2118C165.1 56.0052 164.924 55.8524 164.722 55.7536C164.525 55.6503 164.309 55.5986 164.075 55.5986C163.846 55.5986 163.633 55.6503 163.435 55.7536C163.237 55.8524 163.065 56.0052 162.916 56.2118C162.773 56.414 162.66 56.6655 162.579 56.9665C162.499 57.263 162.458 57.6111 162.458 58.0109ZM172.451 54.7092V55.7401H169.729V62H168.536V54.7092H172.451ZM173.192 58.705V58.0109C173.192 57.4449 173.264 56.9485 173.408 56.5218C173.552 56.0905 173.751 55.7312 174.008 55.4437C174.264 55.1562 174.562 54.9405 174.904 54.7968C175.245 54.6485 175.611 54.5744 176.002 54.5744C176.402 54.5744 176.772 54.6485 177.114 54.7968C177.455 54.9405 177.754 55.1562 178.01 55.4437C178.271 55.7312 178.473 56.0905 178.617 56.5218C178.76 56.9485 178.832 57.4449 178.832 58.0109V58.705C178.832 59.271 178.76 59.7696 178.617 60.2009C178.473 60.6276 178.273 60.9848 178.017 61.2723C177.761 61.5598 177.462 61.7754 177.121 61.9191C176.779 62.0629 176.411 62.1348 176.016 62.1348C175.62 62.1348 175.252 62.0629 174.91 61.9191C174.569 61.7754 174.268 61.5598 174.008 61.2723C173.751 60.9848 173.552 60.6276 173.408 60.2009C173.264 59.7696 173.192 59.271 173.192 58.705ZM174.385 58.0109V58.705C174.385 59.1048 174.425 59.4552 174.506 59.7562C174.587 60.0571 174.702 60.3087 174.85 60.5108C174.998 60.713 175.171 60.8657 175.369 60.969C175.566 61.0679 175.782 61.1173 176.016 61.1173C176.285 61.1173 176.521 61.0679 176.723 60.969C176.93 60.8657 177.1 60.713 177.235 60.5108C177.37 60.3087 177.471 60.0571 177.538 59.7562C177.606 59.4552 177.639 59.1048 177.639 58.705V58.0109C177.639 57.6111 177.599 57.263 177.518 56.9665C177.437 56.6655 177.323 56.414 177.175 56.2118C177.026 56.0052 176.851 55.8524 176.649 55.7536C176.451 55.6503 176.236 55.5986 176.002 55.5986C175.773 55.5986 175.56 55.6503 175.362 55.7536C175.164 55.8524 174.991 56.0052 174.843 56.2118C174.699 56.414 174.587 56.6655 174.506 56.9665C174.425 57.263 174.385 57.6111 174.385 58.0109ZM183.286 58.705V58.0109C183.286 57.4449 183.358 56.9485 183.502 56.5218C183.646 56.0905 183.845 55.7312 184.101 55.4437C184.358 55.1562 184.656 54.9405 184.998 54.7968C185.339 54.6485 185.705 54.5744 186.096 54.5744C186.496 54.5744 186.866 54.6485 187.208 54.7968C187.549 54.9405 187.848 55.1562 188.104 55.4437C188.365 55.7312 188.567 56.0905 188.71 56.5218C188.854 56.9485 188.926 57.4449 188.926 58.0109V58.705C188.926 59.271 188.854 59.7696 188.71 60.2009C188.567 60.6276 188.367 60.9848 188.111 61.2723C187.855 61.5598 187.556 61.7754 187.215 61.9191C186.873 62.0629 186.505 62.1348 186.109 62.1348C185.714 62.1348 185.346 62.0629 185.004 61.9191C184.663 61.7754 184.362 61.5598 184.101 61.2723C183.845 60.9848 183.646 60.6276 183.502 60.2009C183.358 59.7696 183.286 59.271 183.286 58.705ZM184.479 58.0109V58.705C184.479 59.1048 184.519 59.4552 184.6 59.7562C184.681 60.0571 184.796 60.3087 184.944 60.5108C185.092 60.713 185.265 60.8657 185.463 60.969C185.66 61.0679 185.876 61.1173 186.109 61.1173C186.379 61.1173 186.615 61.0679 186.817 60.969C187.024 60.8657 187.194 60.713 187.329 60.5108C187.464 60.3087 187.565 60.0571 187.632 59.7562C187.7 59.4552 187.733 59.1048 187.733 58.705V58.0109C187.733 57.6111 187.693 57.263 187.612 56.9665C187.531 56.6655 187.417 56.414 187.268 56.2118C187.12 56.0052 186.945 55.8524 186.743 55.7536C186.545 55.6503 186.33 55.5986 186.096 55.5986C185.867 55.5986 185.654 55.6503 185.456 55.7536C185.258 55.8524 185.085 56.0052 184.937 56.2118C184.793 56.414 184.681 56.6655 184.6 56.9665C184.519 57.263 184.479 57.6111 184.479 58.0109ZM194.377 51.5354H195.341C195.341 51.9757 195.28 52.3261 195.159 52.5866C195.042 52.8427 194.885 53.0403 194.687 53.1796C194.49 53.3188 194.27 53.4244 194.027 53.4963C193.784 53.5682 193.537 53.6378 193.286 53.7052C192.971 53.786 192.677 53.9141 192.403 54.0893C192.129 54.26 191.893 54.5025 191.696 54.817C191.502 55.1314 191.361 55.5402 191.271 56.0434C191.186 56.5465 191.17 57.1687 191.224 57.9099V58.5298H190.254V57.9099C190.254 57.0788 190.321 56.3533 190.456 55.7334C190.59 55.1135 190.781 54.5901 191.028 54.1634C191.275 53.7366 191.567 53.3975 191.904 53.1459C192.241 52.8943 192.614 52.7214 193.023 52.6271C193.284 52.5597 193.515 52.4878 193.717 52.4114C193.924 52.3306 194.085 52.2228 194.202 52.088C194.319 51.9532 194.377 51.769 194.377 51.5354ZM193.239 55.127C193.638 55.127 193.993 55.2101 194.303 55.3763C194.613 55.5425 194.876 55.7738 195.092 56.0703C195.307 56.3668 195.471 56.7172 195.584 57.1215C195.696 57.5213 195.752 57.957 195.752 58.4287V58.577C195.752 59.0846 195.691 59.5562 195.57 59.992C195.449 60.4232 195.269 60.8006 195.031 61.124C194.797 61.443 194.51 61.6923 194.168 61.872C193.827 62.0517 193.438 62.1415 193.003 62.1415C192.567 62.1415 192.178 62.0517 191.837 61.872C191.5 61.6923 191.213 61.443 190.975 61.124C190.741 60.8006 190.561 60.4232 190.435 59.992C190.314 59.5562 190.254 59.0846 190.254 58.577V58.4287C190.254 58.3164 190.274 58.2063 190.314 58.0985C190.355 57.9907 190.402 57.8807 190.456 57.7684C190.51 57.6561 190.559 57.537 190.604 57.4112C190.743 57.0069 190.936 56.6318 191.183 56.2859C191.43 55.94 191.725 55.6615 192.066 55.4504C192.412 55.2348 192.803 55.127 193.239 55.127ZM192.996 56.1444C192.632 56.1444 192.336 56.25 192.107 56.4611C191.882 56.6723 191.716 56.953 191.608 57.3034C191.5 57.6493 191.446 58.0244 191.446 58.4287V58.577C191.446 58.9184 191.475 59.2418 191.534 59.5473C191.592 59.8527 191.684 60.1245 191.81 60.3626C191.936 60.5962 192.098 60.7804 192.295 60.9151C192.493 61.0499 192.729 61.1173 193.003 61.1173C193.277 61.1173 193.51 61.0499 193.704 60.9151C193.901 60.7804 194.063 60.5962 194.189 60.3626C194.314 60.1245 194.407 59.8527 194.465 59.5473C194.528 59.2418 194.559 58.9184 194.559 58.577V58.4287C194.559 58.1232 194.528 57.8335 194.465 57.5595C194.407 57.2854 194.314 57.0429 194.189 56.8317C194.063 56.6206 193.901 56.4544 193.704 56.3331C193.506 56.2073 193.27 56.1444 192.996 56.1444ZM196.911 58.705V58.0109C196.911 57.4449 196.983 56.9485 197.127 56.5218C197.27 56.0905 197.47 55.7312 197.726 55.4437C197.982 55.1562 198.281 54.9405 198.622 54.7968C198.964 54.6485 199.33 54.5744 199.721 54.5744C200.121 54.5744 200.491 54.6485 200.833 54.7968C201.174 54.9405 201.473 55.1562 201.729 55.4437C201.989 55.7312 202.192 56.0905 202.335 56.5218C202.479 56.9485 202.551 57.4449 202.551 58.0109V58.705C202.551 59.271 202.479 59.7696 202.335 60.2009C202.192 60.6276 201.992 60.9848 201.736 61.2723C201.479 61.5598 201.181 61.7754 200.839 61.9191C200.498 62.0629 200.13 62.1348 199.734 62.1348C199.339 62.1348 198.971 62.0629 198.629 61.9191C198.288 61.7754 197.987 61.5598 197.726 61.2723C197.47 60.9848 197.27 60.6276 197.127 60.2009C196.983 59.7696 196.911 59.271 196.911 58.705ZM198.104 58.0109V58.705C198.104 59.1048 198.144 59.4552 198.225 59.7562C198.306 60.0571 198.42 60.3087 198.569 60.5108C198.717 60.713 198.89 60.8657 199.087 60.969C199.285 61.0679 199.501 61.1173 199.734 61.1173C200.004 61.1173 200.24 61.0679 200.442 60.969C200.648 60.8657 200.819 60.713 200.954 60.5108C201.089 60.3087 201.19 60.0571 201.257 59.7562C201.325 59.4552 201.358 59.1048 201.358 58.705V58.0109C201.358 57.6111 201.318 57.263 201.237 56.9665C201.156 56.6655 201.042 56.414 200.893 56.2118C200.745 56.0052 200.57 55.8524 200.368 55.7536C200.17 55.6503 199.954 55.5986 199.721 55.5986C199.492 55.5986 199.278 55.6503 199.081 55.7536C198.883 55.8524 198.71 56.0052 198.562 56.2118C198.418 56.414 198.306 56.6655 198.225 56.9665C198.144 57.263 198.104 57.6111 198.104 58.0109ZM205.28 56.1107V64.8031H204.087V54.7092H205.172L205.28 56.1107ZM209.357 58.0244V58.705C209.357 59.28 209.303 59.7831 209.195 60.2144C209.092 60.6411 208.937 60.9982 208.73 61.2857C208.528 61.5687 208.278 61.7821 207.982 61.9259C207.685 62.0651 207.346 62.1348 206.964 62.1348C206.583 62.1348 206.25 62.0629 205.967 61.9191C205.689 61.7709 205.453 61.5575 205.26 61.279C205.071 61.0005 204.921 60.6658 204.808 60.275C204.7 59.8797 204.626 59.4372 204.586 58.9476V57.9099C204.626 57.3933 204.7 56.9306 204.808 56.5218C204.916 56.1085 205.064 55.7581 205.253 55.4706C205.446 55.1786 205.682 54.9562 205.96 54.8035C206.243 54.6508 206.574 54.5744 206.951 54.5744C207.342 54.5744 207.685 54.6418 207.982 54.7766C208.283 54.9113 208.534 55.1202 208.737 55.4032C208.943 55.6817 209.098 56.0389 209.202 56.4746C209.305 56.9059 209.357 57.4225 209.357 58.0244ZM208.164 58.705V58.0244C208.164 57.6201 208.132 57.2675 208.07 56.9665C208.011 56.6655 207.917 56.4162 207.787 56.2186C207.656 56.0209 207.492 55.8727 207.295 55.7738C207.097 55.675 206.859 55.6256 206.58 55.6256C206.342 55.6256 206.131 55.675 205.947 55.7738C205.767 55.8727 205.612 56.0074 205.482 56.1781C205.352 56.3443 205.244 56.5353 205.159 56.7509C205.073 56.962 205.01 57.1821 204.97 57.4112V59.4529C205.046 59.7404 205.147 60.0122 205.273 60.2683C205.399 60.5198 205.567 60.7242 205.779 60.8814C205.994 61.0387 206.266 61.1173 206.594 61.1173C206.868 61.1173 207.104 61.0679 207.301 60.969C207.499 60.8702 207.661 60.722 207.787 60.5243C207.917 60.3222 208.011 60.0706 208.07 59.7696C208.132 59.4642 208.164 59.1093 208.164 58.705ZM212.503 61.2453L214.127 54.7092H215.394L212.988 63.1253C212.93 63.305 212.851 63.4981 212.753 63.7048C212.658 63.9159 212.537 64.1158 212.389 64.3045C212.241 64.4932 212.063 64.6459 211.856 64.7627C211.65 64.884 211.407 64.9446 211.129 64.9446C211.043 64.9446 210.933 64.9312 210.799 64.9042C210.668 64.8772 210.574 64.8548 210.516 64.8368V63.8261C210.542 63.8306 210.585 63.8351 210.644 63.8396C210.702 63.8485 210.745 63.853 210.772 63.853C211.005 63.853 211.203 63.8148 211.365 63.7385C211.531 63.6666 211.672 63.5431 211.789 63.3679C211.906 63.1972 212.005 62.9613 212.086 62.6604L212.503 61.2453ZM211.452 54.7092L212.901 60.3693L213.211 61.6833L212.362 62.1415L210.152 54.7092H211.452ZM217.301 54.7092H218.494L218.406 57.4382C218.384 58.13 218.316 58.7274 218.204 59.2306C218.092 59.7337 217.948 60.1627 217.773 60.5176C217.597 60.868 217.4 61.1622 217.18 61.4003C216.96 61.6384 216.73 61.8383 216.492 62H215.913L215.94 60.9825L216.176 60.9758C216.306 60.8006 216.429 60.6209 216.546 60.4367C216.663 60.248 216.769 60.0257 216.863 59.7696C216.957 59.5091 217.034 59.1924 217.092 58.8195C217.155 58.4422 217.195 57.9817 217.213 57.4382L217.301 54.7092ZM217.577 54.7092H221.371V62H220.178V55.8614H217.577V54.7092ZM215.684 60.9758H222.22V64.1495H221.027V62H216.876V64.1495H215.677L215.684 60.9758ZM223.338 58.705V58.0109C223.338 57.4449 223.41 56.9485 223.554 56.5218C223.698 56.0905 223.898 55.7312 224.154 55.4437C224.41 55.1562 224.709 54.9405 225.05 54.7968C225.391 54.6485 225.758 54.5744 226.148 54.5744C226.548 54.5744 226.919 54.6485 227.26 54.7968C227.602 54.9405 227.9 55.1562 228.156 55.4437C228.417 55.7312 228.619 56.0905 228.763 56.5218C228.907 56.9485 228.978 57.4449 228.978 58.0109V58.705C228.978 59.271 228.907 59.7696 228.763 60.2009C228.619 60.6276 228.419 60.9848 228.163 61.2723C227.907 61.5598 227.608 61.7754 227.267 61.9191C226.925 62.0629 226.557 62.1348 226.162 62.1348C225.767 62.1348 225.398 62.0629 225.057 61.9191C224.715 61.7754 224.414 61.5598 224.154 61.2723C223.898 60.9848 223.698 60.6276 223.554 60.2009C223.41 59.7696 223.338 59.271 223.338 58.705ZM224.531 58.0109V58.705C224.531 59.1048 224.572 59.4552 224.652 59.7562C224.733 60.0571 224.848 60.3087 224.996 60.5108C225.144 60.713 225.317 60.8657 225.515 60.969C225.713 61.0679 225.928 61.1173 226.162 61.1173C226.431 61.1173 226.667 61.0679 226.869 60.969C227.076 60.8657 227.247 60.713 227.381 60.5108C227.516 60.3087 227.617 60.0571 227.685 59.7562C227.752 59.4552 227.786 59.1048 227.786 58.705V58.0109C227.786 57.6111 227.745 57.263 227.664 56.9665C227.584 56.6655 227.469 56.414 227.321 56.2118C227.173 56.0052 226.997 55.8524 226.795 55.7536C226.598 55.6503 226.382 55.5986 226.148 55.5986C225.919 55.5986 225.706 55.6503 225.508 55.7536C225.311 55.8524 225.138 56.0052 224.989 56.2118C224.846 56.414 224.733 56.6655 224.652 56.9665C224.572 57.263 224.531 57.6111 224.531 58.0109ZM233.453 58.7926H231.505L231.492 57.7953H233.055C233.365 57.7953 233.621 57.7571 233.823 57.6808C234.03 57.6044 234.185 57.4898 234.288 57.3371C234.392 57.1844 234.443 56.9957 234.443 56.7711C234.443 56.5959 234.414 56.4432 234.356 56.3129C234.297 56.1781 234.21 56.0681 234.093 55.9827C233.98 55.8929 233.839 55.8277 233.668 55.7873C233.498 55.7424 233.298 55.7199 233.069 55.7199H231.809V62H230.623V54.7092H233.069C233.464 54.7092 233.819 54.7496 234.133 54.8305C234.452 54.9113 234.722 55.0349 234.942 55.2011C235.166 55.3628 235.337 55.5694 235.454 55.821C235.575 56.0726 235.636 56.369 235.636 56.7104C235.636 56.9306 235.598 57.1395 235.521 57.3371C235.445 57.5348 235.33 57.71 235.178 57.8627C235.029 58.0154 234.845 58.1412 234.625 58.24C234.405 58.3344 234.151 58.395 233.864 58.422L233.453 58.7926ZM233.453 62H231.061L231.674 60.9893H233.453C233.727 60.9893 233.951 60.9466 234.126 60.8612C234.302 60.7714 234.432 60.6456 234.517 60.4839C234.607 60.3177 234.652 60.12 234.652 59.8909C234.652 59.6618 234.607 59.4664 234.517 59.3047C234.432 59.1385 234.302 59.0127 234.126 58.9273C233.951 58.8375 233.727 58.7926 233.453 58.7926H231.856L231.869 57.7953H233.843L234.261 58.1727C234.607 58.2041 234.897 58.3029 235.13 58.4691C235.369 58.6354 235.546 58.8465 235.663 59.1025C235.784 59.3541 235.845 59.6281 235.845 59.9246C235.845 60.266 235.791 60.567 235.683 60.8275C235.575 61.0881 235.418 61.306 235.211 61.4812C235.005 61.6519 234.753 61.7821 234.457 61.872C234.16 61.9573 233.825 62 233.453 62ZM241.04 60.7534V56.798C241.04 56.5105 240.995 56.2792 240.905 56.104C240.82 55.9288 240.69 55.8008 240.514 55.7199C240.344 55.6391 240.128 55.5986 239.867 55.5986C239.616 55.5986 239.398 55.6503 239.214 55.7536C239.034 55.8569 238.895 55.9939 238.796 56.1646C238.702 56.3354 238.655 56.524 238.655 56.7307H237.462C237.462 56.4701 237.518 56.2118 237.63 55.9558C237.747 55.6997 237.913 55.4684 238.129 55.2617C238.345 55.0506 238.603 54.8844 238.904 54.7631C239.209 54.6373 239.551 54.5744 239.928 54.5744C240.377 54.5744 240.775 54.6485 241.121 54.7968C241.467 54.9405 241.738 55.1764 241.936 55.5043C242.134 55.8322 242.233 56.268 242.233 56.8115V60.4098C242.233 60.6523 242.251 60.9106 242.287 61.1847C242.327 61.4587 242.383 61.6945 242.455 61.8922V62H241.222C241.163 61.8562 241.119 61.6653 241.087 61.4272C241.056 61.1847 241.04 60.9601 241.04 60.7534ZM241.229 57.5797L241.242 58.4557H240.413C240.13 58.4557 239.872 58.4871 239.638 58.55C239.409 58.6129 239.212 58.705 239.045 58.8263C238.879 58.9431 238.751 59.0891 238.661 59.2643C238.576 59.4395 238.533 59.6394 238.533 59.864C238.533 60.156 238.574 60.3896 238.655 60.5647C238.735 60.7354 238.857 60.859 239.018 60.9354C239.18 61.0117 239.385 61.0499 239.632 61.0499C239.933 61.0499 240.198 60.9803 240.427 60.841C240.656 60.7018 240.833 60.5333 240.959 60.3356C241.089 60.138 241.15 59.9538 241.141 59.7831L241.404 60.3424C241.386 60.5176 241.327 60.7085 241.229 60.9151C241.134 61.1173 241.002 61.3127 240.831 61.5014C240.66 61.6855 240.458 61.8383 240.225 61.9596C239.996 62.0764 239.737 62.1348 239.45 62.1348C239.027 62.1348 238.657 62.0539 238.338 61.8922C238.023 61.7305 237.779 61.4924 237.603 61.1779C237.428 60.8635 237.341 60.4749 237.341 60.0122C237.341 59.6618 237.401 59.3384 237.523 59.0419C237.644 58.7454 237.824 58.4894 238.062 58.2737C238.3 58.0536 238.598 57.8829 238.958 57.7616C239.322 57.6403 239.742 57.5797 240.218 57.5797H241.229ZM248.236 57.8694V58.8802H245.144V57.8694H248.236ZM245.386 54.7092V62H244.193V54.7092H245.386ZM249.207 54.7092V62H248.014V54.7092H249.207ZM252.401 60.0257L255.042 54.7092H256.235V62H255.042V56.6835L252.401 62H251.215V54.7092H252.401V60.0257ZM259.348 58.523H260.628L258.829 62H257.549L259.348 58.523ZM260.284 54.7092H262.899V62H261.713V55.7199H260.284C260.01 55.7199 259.786 55.7806 259.611 55.9019C259.435 56.0187 259.307 56.1714 259.227 56.3601C259.146 56.5487 259.105 56.7441 259.105 56.9463C259.105 57.1439 259.141 57.3349 259.213 57.519C259.289 57.6987 259.406 57.847 259.563 57.9638C259.725 58.0806 259.932 58.139 260.183 58.139H262.009V59.1632H260.183C259.824 59.1632 259.503 59.107 259.22 58.9947C258.941 58.8824 258.703 58.7274 258.506 58.5298C258.312 58.3276 258.164 58.0918 258.061 57.8223C257.962 57.5482 257.913 57.2518 257.913 56.9328C257.913 56.6139 257.964 56.3196 258.068 56.0501C258.175 55.7806 258.33 55.5447 258.533 55.3426C258.739 55.1404 258.988 54.9854 259.28 54.8776C259.572 54.7653 259.907 54.7092 260.284 54.7092Z" fill="#404040"/>
<path d="M98.457 17.1445L94.4375 20.9795C91.7031 18.0947 88.627 16.6523 85.209 16.6523C82.3242 16.6523 79.8906 17.6367 77.9082 19.6055C75.9395 21.5742 74.9551 24.001 74.9551 26.8857C74.9551 28.8955 75.3926 30.6797 76.2676 32.2383C77.1426 33.7969 78.3799 35.0205 79.9795 35.9092C81.5791 36.7979 83.3564 37.2422 85.3115 37.2422C86.9795 37.2422 88.5039 36.9346 89.8848 36.3193C91.2656 35.6904 92.7832 34.5557 94.4375 32.915L98.334 36.9756C96.1055 39.1494 94 40.6602 92.0176 41.5078C90.0352 42.3418 87.7725 42.7588 85.2295 42.7588C80.54 42.7588 76.6982 41.2754 73.7041 38.3086C70.7236 35.3281 69.2334 31.5137 69.2334 26.8652C69.2334 23.8574 69.9102 21.1846 71.2637 18.8467C72.6309 16.5088 74.5791 14.6289 77.1084 13.207C79.6514 11.7852 82.3857 11.0742 85.3115 11.0742C87.7998 11.0742 90.1924 11.6006 92.4893 12.6533C94.7998 13.7061 96.7891 15.2031 98.457 17.1445ZM100.528 11.833H117.201V17.4932H111.705V42H105.881V17.4932H100.528V11.833ZM130.326 11.833H136.15L147.758 42H141.79L139.432 35.7861H127.127L124.666 42H118.698L130.326 11.833ZM133.279 19.8311L129.26 30.1875H137.278L133.279 19.8311ZM152.208 11.833H158.032V23.2148H168.122V11.833H173.926V42H168.122V28.7725H158.032V42H152.208V11.833ZM190.619 11.833H196.423L206.123 36.6064H209.486V46.5117H203.929V42H183.175V46.5117H177.617V36.6064H180.96L190.619 11.833ZM193.572 19.8311L186.969 36.6064H200.155L193.572 19.8311ZM213.239 11.833H229.707V17.4521H218.94V22.9072H229.707V28.4238H218.94V36.3604H229.707V42H213.239V11.833ZM262.807 17.1445L258.787 20.9795C256.053 18.0947 252.977 16.6523 249.559 16.6523C246.674 16.6523 244.24 17.6367 242.258 19.6055C240.289 21.5742 239.305 24.001 239.305 26.8857C239.305 28.8955 239.742 30.6797 240.617 32.2383C241.492 33.7969 242.729 35.0205 244.329 35.9092C245.929 36.7979 247.706 37.2422 249.661 37.2422C251.329 37.2422 252.854 36.9346 254.234 36.3193C255.615 35.6904 257.133 34.5557 258.787 32.915L262.684 36.9756C260.455 39.1494 258.35 40.6602 256.367 41.5078C254.385 42.3418 252.122 42.7588 249.579 42.7588C244.89 42.7588 241.048 41.2754 238.054 38.3086C235.073 35.3281 233.583 31.5137 233.583 26.8652C233.583 23.8574 234.26 21.1846 235.613 18.8467C236.98 16.5088 238.929 14.6289 241.458 13.207C244.001 11.7852 246.735 11.0742 249.661 11.0742C252.149 11.0742 254.542 11.6006 256.839 12.6533C259.149 13.7061 261.139 15.2031 262.807 17.1445Z" fill="#404040"/>
<a href="https://www.figma.com/file/dCcm01VBlfd9AGCvDXZrhJ/standes.ru?node-id=3%3A2">
<rect fill="black" fill-opacity="0" y="-0.247559" width="197.101" height="51.4951"/>
</a>
<circle cx="15.5" cy="17.5" r="5" fill="white" stroke="#404040" stroke-width="3"/>
<circle cx="15.5" cy="36.5" r="5" fill="white" stroke="#404040" stroke-width="3"/>
<circle cx="15.5" cy="55.5" r="5" fill="white" stroke="#404040" stroke-width="3"/>
<circle cx="34.5" cy="17.5" r="5" fill="white" stroke="#404040" stroke-width="3"/>
<circle cx="34.5" cy="36.5" r="5" fill="white" stroke="#404040" stroke-width="3"/>
<circle cx="34.5" cy="55.5" r="5" fill="white" stroke="#404040" stroke-width="3"/>
<circle cx="53.5" cy="17.5" r="5" fill="white" stroke="#404040" stroke-width="3"/>
<circle cx="53.5" cy="36.5" r="5" fill="white" stroke="#404040" stroke-width="3"/>
<circle cx="53.5" cy="55.5" r="5" fill="white" stroke="#404040" stroke-width="3"/>
</svg>
