<svg width="43" height="43" viewBox="0 0 43 43" fill="none" xmlns="http://www.w3.org/2000/svg">
<path d="M0.0119262 41.4255C0.40549 41.2614 0.799053 41.0973 1.3238 40.8745C1.3238 40.3 1.35958 39.5379 1.31188 38.7876C1.2761 38.1075 1.41921 37.8848 2.25405 37.8965C2.46872 37.8965 2.69531 37.8965 2.99347 37.8965C2.99347 37.6503 2.99347 37.4275 2.99347 37.2048C2.99347 32.515 2.99347 27.8252 2.99347 23.1472C2.99347 22.3734 3.17236 22.1975 3.97141 22.1975C11.4253 22.1975 18.8672 22.1975 26.3211 22.1975C26.5596 22.1975 26.7862 22.1975 27.0247 22.1975C27.0843 21.4237 27.1678 20.7085 27.1917 20.005C27.2513 18.2581 27.2632 16.4994 27.3229 14.7525C27.3825 12.8297 27.466 10.9069 27.5614 8.98409C27.5972 8.16338 27.776 8.02269 28.6109 8.02269C31.6521 8.02269 34.6932 8.02269 37.7344 8.02269C38.4142 8.02269 38.5096 8.12821 38.5334 8.7965C38.605 11.0124 38.6885 13.2283 38.772 15.4442C38.8435 17.3084 38.927 19.1726 39.0105 21.0368C39.094 22.9596 39.1655 24.8824 39.249 26.8169C39.3325 28.6811 39.4041 30.5453 39.4875 32.4212C39.571 34.2268 39.6784 36.0323 39.7738 37.9199C40.0481 37.9199 40.3582 37.9082 40.6682 37.9199C41.2407 37.9317 41.4911 38.1779 41.5031 38.7407C41.515 39.5027 41.5031 40.2531 41.5031 40.8979C42.0397 41.0973 42.481 41.2731 42.9342 41.4373C42.9342 41.7069 42.9342 41.9883 42.9342 42.258C28.6228 42.258 14.3114 42.258 0 42.258C0.0119262 41.9649 0.0119262 41.6952 0.0119262 41.4255ZM26.3926 37.8731C26.5954 33.0309 26.7981 28.2121 27.0128 23.4051C19.3323 23.4051 11.7711 23.4051 4.20994 23.4051C4.20994 28.2473 4.20994 33.0426 4.20994 37.8731C11.5922 37.8731 18.9268 37.8731 26.3926 37.8731ZM2.42101 41.0269C15.0747 41.0269 27.6806 41.0269 40.2866 41.0269C40.2866 40.3703 40.2866 39.749 40.2866 39.1041C27.6568 39.1041 15.0508 39.1041 2.42101 39.1041C2.42101 39.7607 2.42101 40.3703 2.42101 41.0269ZM28.7063 13.709C31.664 13.709 34.6097 13.709 37.5794 13.709C37.5078 12.1497 37.4482 10.6372 37.3766 9.15996C34.4428 9.15996 31.6043 9.15996 28.7063 9.15996C28.7063 10.6959 28.7063 12.1966 28.7063 13.709ZM27.7522 31.237C27.7522 32.2336 27.7522 33.1716 27.7522 34.1095C31.2823 34.1095 34.8244 34.1095 38.45 34.1095C38.3903 33.1247 38.3307 32.1867 38.283 31.237C34.7648 31.237 31.3181 31.237 27.7522 31.237ZM28.0146 27.1452C27.9669 28.1066 27.9311 29.0446 27.8834 30.0177C31.4016 30.0177 34.8244 30.0177 38.2591 30.0177C38.2114 29.0446 38.1757 28.1066 38.128 27.1452C34.7648 27.1452 31.4255 27.1452 28.0146 27.1452ZM28.3604 21.9044C31.5447 21.9044 34.729 21.9044 37.9371 21.9044C37.8894 21.0602 37.8179 20.263 37.8298 19.4657C37.8298 19.0202 37.6628 18.9147 37.2335 18.9147C34.4905 18.9264 31.7594 18.9264 29.0164 18.9264C28.8255 18.9264 28.6228 18.9498 28.3604 18.9616C28.3604 19.9464 28.3604 20.8961 28.3604 21.9044ZM37.9848 23.0182C37.0785 23.0182 36.2913 23.0182 35.5042 23.0182C33.2382 23.0182 30.9723 23.0065 28.7182 23.0299C28.5393 23.0299 28.1935 23.1941 28.1935 23.2879C28.1577 24.1555 28.1696 25.0231 28.1696 25.9259C31.4016 25.9259 34.7051 25.9259 37.9968 25.9259C37.9848 24.9527 37.9848 24.0265 37.9848 23.0182ZM38.4977 37.8731C38.4977 37.0054 38.4977 36.173 38.4977 35.3523C34.8721 35.3523 31.3062 35.3523 27.7045 35.3523C27.6449 36.1965 27.5972 37.0172 27.5375 37.8731C31.2466 37.8731 34.8721 37.8731 38.4977 37.8731ZM28.3724 17.8126C31.5328 17.8126 34.5978 17.8126 37.6151 17.8126C37.6151 16.8277 37.6151 15.8898 37.6151 14.9635C34.5382 14.9635 31.5566 14.9635 28.5512 14.9635C28.4916 15.9249 28.432 16.8512 28.3724 17.8126Z" fill="#4B7C9B"/>
<path d="M34.5978 0.507324C35.528 0.870781 36.3032 1.36321 36.6491 2.38323C36.8161 2.86393 36.7445 3.23911 36.3032 3.39153C35.8739 3.54395 35.6711 3.15704 35.54 2.78186C35.1583 1.71494 34.0253 1.29286 33.1428 1.96115C32.785 2.23081 32.5823 2.78186 32.463 3.23911C32.3199 3.80189 32.2364 3.93085 31.664 3.81361C30.3759 3.5674 29.4338 4.59915 29.8035 5.84193C29.875 6.07642 29.9227 6.40471 29.8273 6.60402C29.6365 6.99093 29.0998 6.89713 28.8494 6.46333C28.0742 5.13847 28.909 3.13359 30.4713 2.77014C31.1154 2.61772 31.4731 2.37151 31.7713 1.77356C32.1052 1.09355 32.7969 0.741813 33.5244 0.507324C33.8822 0.507324 34.24 0.507324 34.5978 0.507324Z" fill="#4B7C9B"/>
<path d="M23.6258 27.45C23.6258 28.1535 23.6138 28.857 23.6258 29.5604C23.6377 29.9825 23.4349 30.1701 23.0175 30.1584C22.0992 30.1584 21.1928 30.1584 20.2745 30.1584C19.7855 30.1584 19.5589 29.9239 19.5589 29.4432C19.5589 28.0714 19.5589 26.7114 19.5589 25.3396C19.5589 24.8589 19.8094 24.6362 20.2984 24.6362C21.1928 24.6362 22.0873 24.6362 22.9817 24.6362C23.423 24.6362 23.6377 24.8238 23.6258 25.2693C23.6138 26.0079 23.6258 26.7348 23.6258 27.45ZM20.7993 25.8438C20.7993 26.9342 20.7993 27.9542 20.7993 28.9742C21.3717 28.9742 21.9084 28.9742 22.4928 28.9742C22.4928 27.919 22.4928 26.899 22.4928 25.8438C21.9203 25.8438 21.3717 25.8438 20.7993 25.8438Z" fill="#4B7C9B"/>
<path d="M9.79138 27.45C9.79138 28.1301 9.77945 28.8218 9.79138 29.5018C9.8033 29.9708 9.62441 30.1818 9.13544 30.1701C8.24097 30.1584 7.34651 30.1701 6.45205 30.1701C5.96308 30.1701 5.73648 29.9356 5.73648 29.4549C5.73648 28.0832 5.73648 26.7231 5.73648 25.3514C5.73648 24.9058 5.95115 24.6596 6.40435 24.6596C7.33459 24.6596 8.27675 24.6596 9.20699 24.6596C9.63634 24.6596 9.79138 24.8824 9.79138 25.281C9.77945 25.9962 9.79138 26.7231 9.79138 27.45ZM6.96488 25.8555C6.96488 26.9107 6.96488 27.9307 6.96488 28.9508C7.56118 28.9508 8.13364 28.9508 8.68224 28.9508C8.68224 27.8956 8.68224 26.899 8.68224 25.8555C8.10979 25.8555 7.56118 25.8555 6.96488 25.8555Z" fill="#4B7C9B"/>
<path d="M16.7085 27.45C16.7085 28.1535 16.6966 28.857 16.7085 29.5604C16.7205 29.9942 16.4939 30.1701 16.1003 30.1701C15.1701 30.1818 14.2398 30.1818 13.3096 30.1701C12.8803 30.1701 12.6537 29.9356 12.6537 29.5135C12.6537 28.1066 12.6418 26.7114 12.6537 25.3045C12.6537 24.8941 12.8803 24.6713 13.3096 24.6713C14.2279 24.6713 15.1343 24.6596 16.0526 24.6713C16.482 24.6831 16.7324 24.8589 16.7085 25.3513C16.6847 26.0431 16.7085 26.7466 16.7085 27.45ZM13.8821 25.8555C13.8821 26.9341 13.8821 27.9542 13.8821 28.9508C14.4903 28.9508 15.0508 28.9508 15.5994 28.9508C15.5994 27.8956 15.5994 26.8872 15.5994 25.8555C15.027 25.8555 14.4784 25.8555 13.8821 25.8555Z" fill="#4B7C9B"/>
<path d="M16.7086 33.875C16.7086 34.5785 16.6966 35.282 16.7086 35.9854C16.7205 36.431 16.5297 36.6185 16.0765 36.6185C15.1462 36.6068 14.216 36.6068 13.2738 36.6185C12.7968 36.6303 12.6418 36.3958 12.6537 35.9737C12.6537 34.5902 12.6537 33.2067 12.6537 31.8115C12.6537 31.3426 12.928 31.1198 13.3454 31.1081C14.2518 31.0846 15.1701 31.0846 16.0884 31.1081C16.4939 31.1198 16.7324 31.3074 16.7205 31.7646C16.6847 32.4681 16.7086 33.1716 16.7086 33.875ZM13.8701 35.5516C14.371 35.5516 14.8123 35.5751 15.2416 35.5399C15.3848 35.5282 15.6114 35.3406 15.6114 35.2233C15.6352 34.2619 15.6233 33.2888 15.6233 32.3274C14.9912 32.3274 14.4307 32.3274 13.8701 32.3274C13.8701 33.4061 13.8701 34.4495 13.8701 35.5516Z" fill="#4B7C9B"/>
<path d="M23.6258 33.8867C23.6258 34.5902 23.6138 35.2937 23.6258 35.9971C23.6377 36.4426 23.4349 36.6302 22.9817 36.6302C22.0515 36.6185 21.1213 36.6185 20.1791 36.6302C19.7617 36.6302 19.5589 36.4544 19.5589 36.044C19.5589 34.6371 19.5589 33.2302 19.5589 31.8232C19.5589 31.3777 19.7975 31.1315 20.2506 31.1198C21.1451 31.108 22.0396 31.108 22.934 31.1198C23.4111 31.1198 23.6496 31.3425 23.6258 31.8467C23.6019 32.515 23.6258 33.195 23.6258 33.8867ZM20.7873 35.5516C21.2763 35.5516 21.7056 35.575 22.135 35.5399C22.2662 35.5281 22.4928 35.3406 22.5047 35.2233C22.5285 34.2619 22.5166 33.2888 22.5166 32.3157C21.8965 32.3157 21.3479 32.3157 20.7873 32.3157C20.7873 33.3943 20.7873 34.426 20.7873 35.5516Z" fill="#4B7C9B"/>
<path d="M9.79138 33.8867C9.79138 34.5902 9.77945 35.2937 9.79138 35.9971C9.8033 36.4427 9.60056 36.6303 9.14736 36.6185C8.22905 36.6068 7.32266 36.5951 6.40435 36.6185C5.93923 36.6303 5.73648 36.4192 5.73648 36.0089C5.72456 34.5902 5.72456 33.1598 5.73648 31.7412C5.73648 31.3191 6.04656 31.1198 6.44013 31.1198C7.33459 31.0963 8.22905 31.1081 9.12351 31.1198C9.55285 31.1198 9.81523 31.2956 9.79138 31.7881C9.76753 32.4798 9.79138 33.1833 9.79138 33.8867ZM8.71802 32.3039C8.07401 32.3039 7.52541 32.3039 6.9768 32.3039C6.9768 33.3943 6.9768 34.4495 6.9768 35.5399C7.45385 35.5399 7.88319 35.5751 8.31253 35.5282C8.45565 35.5164 8.69417 35.3054 8.7061 35.1764C8.72995 34.2385 8.71802 33.2888 8.71802 32.3039Z" fill="#4B7C9B"/>
</svg>
