<svg width="32" height="24" viewBox="0 0 32 24" fill="none" xmlns="http://www.w3.org/2000/svg">
<mask id="path-1-outside-1_346_13" maskUnits="userSpaceOnUse" x="0" y="0" width="32" height="24" fill="black">
<rect fill="white" width="32" height="24"/>
<path d="M28.9219 5.03125C28.6094 3.84375 27.6719 2.90625 26.4844 2.57813C24.3438 2 15.75 2 15.75 2C15.75 2 7.15625 2 5 2.57813C3.8125 2.89063 2.89063 3.82813 2.5625 5.03125C2 7.1875 2 11.6875 2 11.6875C2 11.6875 2 16.1875 2.57812 18.3438C2.89062 19.5312 3.82812 20.4688 5.01562 20.7969C7.15625 21.375 15.75 21.375 15.75 21.375C15.75 21.375 24.3438 21.375 26.5 20.7969C27.6875 20.4844 28.6094 19.5469 28.9375 18.3438C29.5 16.1875 29.5 11.6875 29.5 11.6875C29.5 11.6875 29.5 7.1875 28.9219 5.03125Z"/>
<path d="M12.9375 15.7812V7.59375L20.125 11.6875L12.9375 15.7812Z"/>
</mask>
<path d="M28.9219 5.03125C28.6094 3.84375 27.6719 2.90625 26.4844 2.57813C24.3438 2 15.75 2 15.75 2C15.75 2 7.15625 2 5 2.57813C3.8125 2.89063 2.89063 3.82813 2.5625 5.03125C2 7.1875 2 11.6875 2 11.6875C2 11.6875 2 16.1875 2.57812 18.3438C2.89062 19.5312 3.82812 20.4688 5.01562 20.7969C7.15625 21.375 15.75 21.375 15.75 21.375C15.75 21.375 24.3438 21.375 26.5 20.7969C27.6875 20.4844 28.6094 19.5469 28.9375 18.3438C29.5 16.1875 29.5 11.6875 29.5 11.6875C29.5 11.6875 29.5 7.1875 28.9219 5.03125Z" fill="white"/>
<path d="M12.9375 15.7812V7.59375L20.125 11.6875L12.9375 15.7812Z" fill="#E02A47"/>
<path d="M28.9219 5.03125L26.9877 5.54024L26.9901 5.54919L28.9219 5.03125ZM26.4844 2.57813L27.0171 0.650332L27.0058 0.647302L26.4844 2.57813ZM15.75 2V0V2ZM5 2.57813L5.50899 4.5123L5.51794 4.5099L5 2.57813ZM2.5625 5.03125L0.632972 4.50502L0.63006 4.5157L0.627266 4.52641L2.5625 5.03125ZM2 11.6875H0H2ZM2.57812 18.3438L4.51229 17.8348L4.5099 17.8258L2.57812 18.3438ZM5.01562 20.7969L4.48295 22.7247L4.49416 22.7277L5.01562 20.7969ZM26.5 20.7969L25.991 18.8627L25.9821 18.8651L26.5 20.7969ZM28.9375 18.3438L30.867 18.87L30.8699 18.8593L30.8727 18.8486L28.9375 18.3438ZM12.9375 15.7812H10.9375V19.222L13.9273 17.5191L12.9375 15.7812ZM12.9375 7.59375L13.9273 5.85587L10.9375 4.15297V7.59375H12.9375ZM20.125 11.6875L21.1148 13.4254L24.1661 11.6875L21.1148 9.94962L20.125 11.6875ZM30.856 4.52226C30.3593 2.63471 28.8796 1.16502 27.017 0.650364L25.9517 4.50589C26.4641 4.64748 26.8594 5.05279 26.9877 5.54024L30.856 4.52226ZM27.0058 0.647302C26.2613 0.446216 25.1417 0.329423 24.0506 0.249271C22.9028 0.164953 21.5956 0.109691 20.3742 0.0731598C19.1497 0.0365314 17.9951 0.0182713 17.1477 0.00914907C16.7237 0.0045836 16.3755 0.00229704 16.1329 0.00115144C16.0115 0.000578523 15.9165 0.000290751 15.8515 0.000146151C15.819 7.37906e-05 15.7939 3.73125e-05 15.7769 1.88351e-05C15.7683 9.53674e-06 15.7618 4.88758e-06 15.7573 2.5034e-06C15.7551 1.3113e-06 15.7533 7.15256e-07 15.7521 3.57628e-07C15.7515 2.38419e-07 15.751 1.19209e-07 15.7507 0C15.7505 0 15.7503 0 15.7502 0C15.7501 0 15.75 0 15.75 2C15.75 4 15.75 4 15.75 4C15.75 4 15.75 4 15.7501 4C15.7503 4 15.7506 4 15.751 4C15.7519 4 15.7533 4 15.7552 4C15.759 4 15.7648 4.00001 15.7726 4.00002C15.7881 4.00003 15.8116 4.00007 15.8426 4.00014C15.9045 4.00027 15.9962 4.00055 16.114 4.00111C16.3497 4.00222 16.6897 4.00445 17.1047 4.00892C17.9355 4.01786 19.0632 4.03573 20.2547 4.07137C21.4493 4.10711 22.6919 4.16024 23.7575 4.23852C24.8798 4.32097 25.6372 4.42097 25.9629 4.50895L27.0058 0.647302ZM15.75 2C15.75 0 15.7499 0 15.7498 0C15.7497 0 15.7495 0 15.7493 0C15.749 1.19209e-07 15.7485 2.38419e-07 15.7479 3.57628e-07C15.7467 7.15256e-07 15.7449 1.3113e-06 15.7427 2.5034e-06C15.7382 4.88758e-06 15.7317 9.53674e-06 15.7231 1.88351e-05C15.7061 3.73125e-05 15.681 7.37906e-05 15.6485 0.000146031C15.5835 0.000290751 15.4884 0.000578523 15.3671 0.00115144C15.1244 0.00229704 14.7762 0.0045836 14.352 0.00914907C13.5044 0.0182712 12.3494 0.0365311 11.1238 0.0731583C9.90153 0.10969 8.59297 0.164948 7.44312 0.24925C6.34899 0.329467 5.22852 0.446217 4.48206 0.646354L5.51794 4.5099C5.84961 4.42097 6.61194 4.32092 7.73559 4.23854C8.80352 4.16025 10.0477 4.10711 11.2433 4.07137C12.4358 4.03573 13.564 4.01786 14.3951 4.00892C14.8102 4.00445 15.1503 4.00222 15.386 4.00111C15.5038 4.00055 15.5955 4.00027 15.6574 4.00014C15.6884 4.00007 15.7119 4.00003 15.7274 4.00002C15.7352 4.00001 15.741 4 15.7448 4C15.7467 4 15.7481 4 15.749 4C15.7494 4 15.7497 4 15.7499 4C15.75 4 15.75 4 15.75 4C15.75 4 15.75 4 15.75 2ZM4.49101 0.643976C2.58563 1.14539 1.14168 2.63975 0.632972 4.50502L4.49203 5.55749C4.63957 5.0165 5.03937 4.63586 5.50899 4.51227L4.49101 0.643976ZM0.627266 4.52641C0.288084 5.8266 0.142812 7.67968 0.0728499 9.06726C0.0363919 9.79034 0.0182371 10.4417 0.00916111 10.9121C0.00461483 11.1478 0.00232613 11.3391 0.00117314 11.4727C0.000596404 11.5395 0.000303268 11.5919 0.000154138 11.6282C7.96318e-05 11.6464 4.1008e-05 11.6606 2.12193e-05 11.6705C1.12057e-05 11.6755 5.96046e-06 11.6794 3.09944e-06 11.6823C1.66893e-06 11.6837 9.53674e-07 11.6848 4.76837e-07 11.6857C2.38419e-07 11.6861 1.19209e-07 11.6865 1.19209e-07 11.6868C0 11.687 0 11.6871 0 11.6872C0 11.6874 0 11.6875 2 11.6875C4 11.6875 4 11.6876 4 11.6877C4 11.6877 4 11.6878 4 11.6878C4 11.6878 4 11.6878 4 11.6877C4 11.6874 4 11.687 4 11.6862C4 11.6847 4.00001 11.6821 4.00001 11.6785C4.00003 11.6713 4.00006 11.6599 4.00012 11.6446C4.00025 11.614 4.0005 11.5677 4.00102 11.5072C4.00207 11.3862 4.00417 11.2092 4.00842 10.9893C4.01692 10.5486 4.03392 9.94013 4.06778 9.26868C4.13844 7.8672 4.27442 6.39215 4.49773 5.53609L0.627266 4.52641ZM2 11.6875C0 11.6875 0 11.6876 0 11.6878C0 11.6879 1.19209e-07 11.6881 1.19209e-07 11.6882C1.19209e-07 11.6885 3.57628e-07 11.6889 4.76837e-07 11.6893C9.53674e-07 11.6902 1.78814e-06 11.6914 3.21865e-06 11.6928C6.07967e-06 11.6957 1.15633e-05 11.6996 2.18153e-05 11.7046C4.24385e-05 11.7146 8.21352e-05 11.7288 0.000158906 11.747C0.000312448 11.7834 0.000614405 11.8359 0.00120783 11.9028C0.00239444 12.0365 0.0047493 12.2281 0.00942624 12.464C0.0187625 12.9348 0.0374379 13.5867 0.0749456 14.3105C0.146853 15.6982 0.296314 17.5561 0.646354 18.8617L4.5099 17.8258C4.28181 16.9751 4.14221 15.505 4.06959 14.1035C4.03483 13.4328 4.01737 12.825 4.00864 12.3847C4.00428 12.165 4.00212 11.9881 4.00105 11.8673C4.00051 11.807 4.00025 11.7607 4.00012 11.7301C4.00006 11.7149 4.00003 11.7035 4.00001 11.6964C4.00001 11.6928 4 11.6902 4 11.6887C4 11.688 4 11.6875 4 11.6873C4 11.6872 4 11.6872 4 11.6872C4 11.6872 4 11.6873 4 11.6873C4 11.6874 4 11.6875 2 11.6875ZM0.643976 18.8527C1.1407 20.7403 2.62039 22.21 4.48295 22.7246L5.5483 18.8691C5.03586 18.7275 4.64055 18.3222 4.51227 17.8348L0.643976 18.8527ZM4.49416 22.7277C5.23873 22.9288 6.35835 23.0456 7.44942 23.1257C8.59721 23.21 9.90441 23.2653 11.1258 23.3018C12.3503 23.3385 13.5049 23.3567 14.3523 23.3659C14.7763 23.3704 15.1245 23.3727 15.3671 23.3738C15.4885 23.3744 15.5835 23.3747 15.6485 23.3749C15.681 23.3749 15.7061 23.375 15.7231 23.375C15.7317 23.375 15.7382 23.375 15.7427 23.375C15.7449 23.375 15.7467 23.375 15.7479 23.375C15.7485 23.375 15.749 23.375 15.7493 23.375C15.7495 23.375 15.7497 23.375 15.7498 23.375C15.7499 23.375 15.75 23.375 15.75 21.375C15.75 19.375 15.75 19.375 15.75 19.375C15.75 19.375 15.75 19.375 15.7499 19.375C15.7497 19.375 15.7494 19.375 15.749 19.375C15.7481 19.375 15.7467 19.375 15.7448 19.375C15.741 19.375 15.7352 19.375 15.7274 19.375C15.7119 19.375 15.6884 19.3749 15.6574 19.3749C15.5955 19.3747 15.5038 19.3744 15.386 19.3739C15.1503 19.3728 14.8103 19.3706 14.3953 19.3661C13.5645 19.3571 12.4368 19.3393 11.2453 19.3036C10.0507 19.2679 8.80806 19.2148 7.74248 19.1365C6.62017 19.054 5.86284 18.954 5.53709 18.8661L4.49416 22.7277ZM15.75 21.375C15.75 23.375 15.7501 23.375 15.7502 23.375C15.7503 23.375 15.7505 23.375 15.7507 23.375C15.751 23.375 15.7515 23.375 15.7521 23.375C15.7533 23.375 15.7551 23.375 15.7573 23.375C15.7618 23.375 15.7683 23.375 15.7769 23.375C15.7939 23.375 15.819 23.3749 15.8515 23.3749C15.9165 23.3747 16.0116 23.3744 16.1329 23.3738C16.3756 23.3727 16.7238 23.3704 17.148 23.3659C17.9956 23.3567 19.1506 23.3385 20.3762 23.3018C21.5985 23.2653 22.907 23.2101 24.0569 23.1257C25.151 23.0455 26.2715 22.9288 27.0179 22.7286L25.9821 18.8651C25.6504 18.954 24.8881 19.0541 23.7644 19.1365C22.6965 19.2148 21.4523 19.2679 20.2567 19.3036C19.0642 19.3393 17.936 19.3571 17.1049 19.3661C16.6898 19.3706 16.3497 19.3728 16.114 19.3739C15.9962 19.3744 15.9045 19.3747 15.8426 19.3749C15.8116 19.3749 15.7881 19.375 15.7726 19.375C15.7648 19.375 15.759 19.375 15.7552 19.375C15.7533 19.375 15.7519 19.375 15.751 19.375C15.7506 19.375 15.7503 19.375 15.7501 19.375C15.75 19.375 15.75 19.375 15.75 19.375C15.75 19.375 15.75 19.375 15.75 21.375ZM27.009 22.731C28.9144 22.2296 30.3583 20.7353 30.867 18.87L27.008 17.8175C26.8604 18.3585 26.4606 18.7391 25.991 18.8627L27.009 22.731ZM30.8727 18.8486C31.2119 17.5484 31.3572 15.6953 31.4272 14.3077C31.4636 13.5847 31.4818 12.9333 31.4908 12.4629C31.4954 12.2272 31.4977 12.0359 31.4988 11.9023C31.4994 11.8355 31.4997 11.7831 31.4998 11.7468C31.4999 11.7286 31.5 11.7144 31.5 11.7045C31.5 11.6995 31.5 11.6956 31.5 11.6927C31.5 11.6913 31.5 11.6902 31.5 11.6893C31.5 11.6889 31.5 11.6885 31.5 11.6882C31.5 11.688 31.5 11.6879 31.5 11.6878C31.5 11.6876 31.5 11.6875 29.5 11.6875C27.5 11.6875 27.5 11.6874 27.5 11.6873C27.5 11.6873 27.5 11.6872 27.5 11.6872C27.5 11.6872 27.5 11.6872 27.5 11.6873C27.5 11.6876 27.5 11.688 27.5 11.6888C27.5 11.6903 27.5 11.6929 27.5 11.6965C27.5 11.7037 27.4999 11.7151 27.4999 11.7304C27.4998 11.761 27.4995 11.8074 27.499 11.8678C27.4979 11.9888 27.4958 12.1658 27.4916 12.3857C27.4831 12.8264 27.4661 13.4349 27.4322 14.1063C27.3616 15.5078 27.2256 16.9829 27.0023 17.8389L30.8727 18.8486ZM29.5 11.6875C31.5 11.6875 31.5 11.6874 31.5 11.6872C31.5 11.6871 31.5 11.6869 31.5 11.6868C31.5 11.6865 31.5 11.6861 31.5 11.6857C31.5 11.6848 31.5 11.6836 31.5 11.6822C31.5 11.6793 31.5 11.6754 31.5 11.6704C31.5 11.6604 31.4999 11.6462 31.4998 11.628C31.4997 11.5916 31.4994 11.5391 31.4988 11.4722C31.4976 11.3385 31.4953 11.1469 31.4906 10.911C31.4812 10.4402 31.4626 9.78826 31.4251 9.06447C31.3531 7.67684 31.2037 5.81886 30.8536 4.51331L26.9901 5.54919C27.2182 6.39989 27.3578 7.87004 27.4304 9.27147C27.4652 9.9422 27.4826 10.55 27.4914 10.9903C27.4957 11.21 27.4979 11.3869 27.4989 11.5077C27.4995 11.568 27.4997 11.6143 27.4999 11.6449C27.4999 11.6601 27.5 11.6715 27.5 11.6786C27.5 11.6822 27.5 11.6848 27.5 11.6863C27.5 11.687 27.5 11.6875 27.5 11.6877C27.5 11.6878 27.5 11.6878 27.5 11.6878C27.5 11.6878 27.5 11.6877 27.5 11.6877C27.5 11.6876 27.5 11.6875 29.5 11.6875ZM14.9375 15.7812V7.59375H10.9375V15.7812H14.9375ZM11.9477 9.33163L19.1352 13.4254L21.1148 9.94962L13.9273 5.85587L11.9477 9.33163ZM19.1352 9.94962L11.9477 14.0434L13.9273 17.5191L21.1148 13.4254L19.1352 9.94962Z" fill="#E02A47" mask="url(#path-1-outside-1_346_13)"/>
</svg>
