<?xml version="1.0" encoding="UTF-8"?>
<!DOCTYPE svg PUBLIC "-//W3C//DTD SVG 1.1//EN" "http://www.w3.org/Graphics/SVG/1.1/DTD/svg11.dtd">
<svg version="1.1" xmlns="http://www.w3.org/2000/svg" xmlns:xlink="http://www.w3.org/1999/xlink" x="0" y="0" width="377.652" height="582.492" viewBox="0, 0, 377.652, 582.492">
  <defs>
    <clipPath id="Clip_1">
      <path d="M114.79,382.873 L72.485,492.316 C72.485,492.316 169.965,542.891 292.28,492.316 L247.221,379.191 z"/>
    </clipPath>
  </defs>
  <g id="Layer_1">
    <path d="M247.622,477.365 L253.139,540.812 C253.139,540.812 267.006,546.779 270.62,555.529 C277.055,571.173 231.059,580.363 225.542,576.681 C220.024,573 199.809,470.002 199.809,470.002" fill="#FFFFFE" id="path838"/>
    <path d="M247.622,477.365 L253.139,540.812 C253.139,540.812 267.006,546.779 270.62,555.529 C277.055,571.173 231.059,580.363 225.542,576.681 C220.024,573 199.809,470.002 199.809,470.002" fill-opacity="0" stroke="#3C2C1E" stroke-width="10" stroke-linecap="round" stroke-linejoin="round" id="path840"/>
    <path d="M121.137,477.365 L115.61,540.812 C115.61,540.812 101.743,546.779 98.139,555.529 C91.694,571.173 137.68,580.363 143.198,576.681 C148.715,573 168.96,470.002 168.96,470.002" fill="#FFFFFE" id="path842"/>
    <path d="M121.137,477.365 L115.61,540.812 C115.61,540.812 101.743,546.779 98.139,555.529 C91.694,571.173 137.68,580.363 143.198,576.681 C148.715,573 168.96,470.002 168.96,470.002" fill-opacity="0" stroke="#3C2C1E" stroke-width="10" stroke-linecap="round" stroke-linejoin="round" id="path844"/>
    <g clip-path="url(#Clip_1)" id="g854">
      <path d="M114.79,382.873 L72.485,492.316 C72.485,492.316 169.965,542.891 292.28,492.316 L247.221,379.191" fill="#63B557" id="path846"/>
      <path d="M114.79,382.873 L72.485,492.316 C72.485,492.316 169.965,542.891 292.28,492.316 L247.221,379.191" fill-opacity="0" stroke="#3C2C1E" stroke-width="10" stroke-linecap="round" stroke-linejoin="round" id="path848"/>
      <path d="M72.485,423.342 L292.28,423.342 L292.28,442.648 L72.485,442.648 z" fill="#EBB748" id="path850"/>
      <path d="M72.485,471.163 L292.28,471.163 L292.28,490.471 L72.485,490.471 z" fill="#EBB748" id="path852"/>
    </g>
    <path d="M114.79,382.873 L72.485,492.316 C72.485,492.316 169.965,542.891 292.28,492.316 L247.221,379.191" fill-opacity="0" stroke="#3C2C1E" stroke-width="10" stroke-linecap="round" stroke-linejoin="round" id="path856"/>
    <path d="M84.819,381.916 C84.819,381.916 59.233,450.666 106.84,455.079 C154.428,459.494 206.46,432.16 206.46,432.16 C206.46,432.16 167.671,407.482 127.124,417.18 L125.346,400.431" fill="#FFFFFE" id="path858"/>
    <path d="M84.819,381.916 C84.819,381.916 59.233,450.666 106.84,455.079 C154.428,459.494 206.46,432.16 206.46,432.16 C206.46,432.16 167.671,407.482 127.124,417.18 L125.346,400.431" fill-opacity="0" stroke="#3C2C1E" stroke-width="10" stroke-linecap="round" stroke-linejoin="round" id="path860"/>
    <path d="M224.965,401.309 L206.46,432.16 L149.145,451.555 C149.145,451.555 237.299,475.353 254.047,453.322 C270.786,431.271 284.458,380.598 284.458,380.598" fill="#FFFFFE" id="path862"/>
    <path d="M224.965,401.309 L206.46,432.16 L149.145,451.555 C149.145,451.555 237.299,475.353 254.047,453.322 C270.786,431.271 284.458,380.598 284.458,380.598" fill-opacity="0" stroke="#3C2C1E" stroke-width="10" stroke-linecap="round" stroke-linejoin="round" id="path864"/>
    <path d="M53.178,65.988 C53.178,65.988 29.389,31.994 66.635,27.853 C66.635,27.853 84.038,4.474 101.137,25.803 C101.137,25.803 123.891,12.971 134.575,35.881 C134.575,35.881 162.055,28.01 159.047,56.31 C159.047,56.31 181.919,67.424 164.926,90.968 C164.926,90.968 192.299,118.067 164.926,130.275 C164.926,130.275 124.633,164.952 104.419,128.517 C104.419,128.517 89.321,137.346 79.057,126.154 C67.661,113.732 74.907,101.31 74.907,101.31 C74.907,101.31 35.6,94.064 53.178,65.988" fill="#598C42" id="path866"/>
    <path d="M53.178,65.988 C53.178,65.988 29.389,31.994 66.635,27.853 C66.635,27.853 84.038,4.474 101.137,25.803 C101.137,25.803 123.891,12.971 134.575,35.881 C134.575,35.881 162.055,28.01 159.047,56.31 C159.047,56.31 181.919,67.424 164.926,90.968 C164.926,90.968 192.299,118.067 164.926,130.275 C164.926,130.275 124.633,164.952 104.419,128.517 C104.419,128.517 89.321,137.346 79.057,126.154 C67.661,113.732 74.907,101.31 74.907,101.31 C74.907,101.31 35.6,94.064 53.178,65.988 z" fill-opacity="0" stroke="#3C2C1E" stroke-width="10" stroke-linecap="round" stroke-linejoin="round" id="path868"/>
    <path d="M211.45,17.717 C211.45,17.717 238.833,-13.455 251.684,21.74 C251.684,21.74 278.52,33.127 261.84,54.777 C261.84,54.777 279.712,73.849 259.975,89.65 C259.975,89.65 274.145,114.473 245.922,118.264 C245.922,118.264 240.551,143.127 213.657,132.189 C213.657,132.189 193.803,165.207 175.454,141.505 C175.454,141.505 132.221,110.577 162.837,82.306 C162.837,82.306 150.688,69.728 159.135,57.092 C168.501,43.088 182.28,47.199 182.28,47.199 C182.28,47.199 180.005,7.277 211.45,17.717" fill="#598C42" id="path870"/>
    <path d="M211.45,17.717 C211.45,17.717 238.833,-13.455 251.684,21.74 C251.684,21.74 278.52,33.127 261.84,54.777 C261.84,54.777 279.712,73.849 259.975,89.65 C259.975,89.65 274.145,114.473 245.922,118.264 C245.922,118.264 240.551,143.127 213.657,132.189 C213.657,132.189 193.803,165.207 175.454,141.505 C175.454,141.505 132.221,110.577 162.837,82.306 C162.837,82.306 150.688,69.728 159.135,57.092 C168.501,43.088 182.28,47.199 182.28,47.199 C182.28,47.199 180.005,7.277 211.45,17.717 z" fill-opacity="0" stroke="#3C2C1E" stroke-width="10" stroke-linecap="round" stroke-linejoin="round" id="path872"/>
    <path d="M335.551,58.42 C335.551,58.42 375.356,46.74 367.368,83.342 C367.368,83.342 383.979,107.316 358.325,116.701 C358.325,116.701 363.237,142.365 338.1,145.178 C338.1,145.178 336.792,173.732 310.922,161.837 C310.922,161.837 293.09,179.982 276.206,156.348 C276.206,156.348 241.782,173.644 238.94,143.791 C238.94,143.791 218.95,94.553 259.926,87.023 C259.926,87.023 256.381,69.885 270.297,63.732 C285.698,56.906 295.131,67.756 295.131,67.756 C295.131,67.756 314.565,32.805 335.551,58.42" fill="#598C42" id="path874"/>
    <path d="M335.551,58.42 C335.551,58.42 375.356,46.74 367.368,83.342 C367.368,83.342 383.979,107.316 358.325,116.701 C358.325,116.701 363.237,142.365 338.1,145.178 C338.1,145.178 336.792,173.732 310.922,161.837 C310.922,161.837 293.09,179.982 276.206,156.348 C276.206,156.348 241.782,173.644 238.94,143.791 C238.94,143.791 218.95,94.553 259.926,87.023 C259.926,87.023 256.381,69.885 270.297,63.732 C285.698,56.906 295.131,67.756 295.131,67.756 C295.131,67.756 314.565,32.805 335.551,58.42 z" fill-opacity="0" stroke="#3C2C1E" stroke-width="10" stroke-linecap="round" stroke-linejoin="round" id="path876"/>
    <path d="M163.872,201.661 C163.872,201.661 150.415,112.678 98.696,63.029 C98.696,63.029 181.46,106.486 173.178,202.697" fill="#91C66D" id="path878"/>
    <path d="M163.872,201.661 C163.872,201.661 150.415,112.678 98.696,63.029 C98.696,63.029 181.46,106.486 173.178,202.697" fill-opacity="0" stroke="#3C2C1E" stroke-width="10" stroke-linecap="round" stroke-linejoin="round" id="path880"/>
    <path d="M166.967,206.837 C166.967,206.837 152.505,108.556 221.811,61.994 C221.811,61.994 181.46,108.537 179.389,212.014 C179.389,212.014 203.178,116.817 315.952,100.275 C315.952,100.275 222.856,141.651 189.751,215.108" fill="#91C66D" id="path882"/>
    <path d="M166.967,206.837 C166.967,206.837 152.505,108.556 221.811,61.994 C221.811,61.994 181.46,108.537 179.389,212.014 C179.389,212.014 203.178,116.817 315.952,100.275 C315.952,100.275 222.856,141.651 189.751,215.108" fill-opacity="0" stroke="#3C2C1E" stroke-width="10" stroke-linecap="round" stroke-linejoin="round" id="path884"/>
    <path d="M348.139,233.233 C318.11,173.166 207.671,176.75 181.518,178.478 C155.346,176.75 44.917,173.166 14.878,233.233 C-19.253,301.505 34.096,393.067 181.518,407.033 C328.94,393.067 382.29,301.505 348.139,233.233" fill="#FFFFFE" id="path886"/>
    <path d="M348.139,233.233 C318.11,173.166 207.671,176.75 181.518,178.478 C155.346,176.75 44.917,173.166 14.878,233.233 C-19.253,301.505 34.096,393.067 181.518,407.033 C328.94,393.067 382.29,301.505 348.139,233.233 z" fill-opacity="0" stroke="#3C2C1E" stroke-width="10" stroke-linecap="round" stroke-linejoin="round" id="path888"/>
    <path d="M141.967,295.949 C141.967,323.332 119.77,345.529 92.397,345.529 C64.995,345.529 42.827,323.332 42.827,295.949 C42.827,268.566 64.995,246.369 92.397,246.369 C119.77,246.369 141.967,268.566 141.967,295.949" fill="#EC99A5" id="path890"/>
    <path d="M84.028,266.105 C85.698,269.806 82.28,274.942 76.43,277.559 C70.561,280.187 64.467,279.317 62.807,275.607 C61.157,271.916 64.555,266.779 70.415,264.161 C76.284,261.525 82.397,262.404 84.028,266.105" fill="#FFFFFE" id="path892"/>
    <path d="M318.227,295.949 C318.227,323.332 296.03,345.529 268.657,345.529 C241.274,345.529 219.087,323.332 219.087,295.949 C219.087,268.566 241.274,246.369 268.657,246.369 C296.03,246.369 318.227,268.566 318.227,295.949" fill="#EC99A5" id="path894"/>
    <path d="M260.288,266.105 C261.958,269.806 258.53,274.942 252.69,277.559 C246.821,280.187 240.727,279.317 239.067,275.607 C237.417,271.916 240.815,266.779 246.674,264.161 C252.544,261.525 258.657,262.404 260.288,266.105" fill="#FFFFFE" id="path896"/>
    <path d="M149.301,256.173 C149.301,269.689 142.329,280.656 133.715,280.656 C125.092,280.656 118.09,269.689 118.09,256.173 C118.09,242.648 125.092,231.691 133.715,231.691 C142.329,231.691 149.301,242.648 149.301,256.173" fill="#3C2C1E" id="path898"/>
    <path d="M236.225,256.173 C236.225,269.689 229.223,280.656 220.61,280.656 C211.987,280.656 205.005,269.689 205.005,256.173 C205.005,242.648 211.987,231.691 220.61,231.691 C229.223,231.691 236.225,242.648 236.225,256.173" fill="#3C2C1E" id="path900"/>
    <path d="M150.649,319.288 C150.649,319.288 165.249,302.442 176.489,302.442 C187.7,302.442 196.694,312.559 196.694,312.559 M220.268,300.197 C220.268,300.197 193.325,310.305 188.823,330.529" fill-opacity="0" stroke="#3C2C1E" stroke-width="10" stroke-linecap="round" stroke-linejoin="round" id="path902"/>
  </g>
</svg>
