<svg width="23" height="25" viewBox="0 0 23 25" fill="none" xmlns="http://www.w3.org/2000/svg">
<path d="M6.05297 20.9385L6.42854 21.1282C7.95993 22.048 9.7107 22.5288 11.4925 22.5188C16.9777 22.5062 21.4846 17.9443 21.4846 12.4051C21.4846 9.72818 20.4317 7.15741 18.5595 5.26236C16.6898 3.34772 14.1353 2.26872 11.4731 2.26872C6.01291 2.26872 1.52043 6.80597 1.52043 12.3192C1.52043 12.3628 1.52043 12.4058 1.52106 12.4494C1.53751 14.3238 2.05667 16.1588 3.02336 17.759L3.27372 18.1383L2.27221 21.8677L6.05297 20.9385Z" fill="#00B25C"/>
<path d="M19.6737 4.12458C17.5423 1.92864 14.6185 0.696691 11.5739 0.711186H11.5544C5.28431 0.711206 0.124577 5.92166 0.124577 12.2534C0.124577 12.2831 0.125204 12.3122 0.125204 12.3419C0.148822 14.3551 0.664895 16.331 1.6275 18.0941L0 24.0991L6.06549 22.5188C7.74109 23.4478 9.62487 23.9266 11.5363 23.9094C17.8296 23.8747 22.9887 18.6345 22.985 12.2787C23 9.22502 21.8076 6.28827 19.6737 4.12458ZM11.5739 21.9499C9.8795 21.9588 8.21498 21.4998 6.76028 20.6225L6.38471 20.4328L2.77297 21.381L3.71189 17.778L3.46152 17.3988C2.53148 15.8823 2.03875 14.1339 2.03872 12.3501C2.03872 7.08979 6.32526 2.76111 11.5344 2.76111C16.7436 2.76111 21.0301 7.08979 21.0301 12.3501C21.0301 15.6624 19.3307 18.7483 16.5439 20.4961C15.0701 21.4495 13.3555 21.9542 11.6052 21.9499H11.5739ZM17.1073 14.9335L16.4187 14.6175C16.4187 14.6175 15.4172 14.175 14.7913 13.859C14.7287 13.859 14.6661 13.7958 14.6035 13.7958C14.4491 13.7996 14.2983 13.8431 14.1653 13.9222C14.032 14.0012 14.1027 13.9854 13.2264 14.9968C13.1669 15.115 13.0449 15.1889 12.9134 15.1864H12.8508C12.7567 15.1705 12.6695 15.1265 12.6004 15.06L12.2875 14.9335C11.6159 14.6464 11.001 14.2396 10.4722 13.7326C10.347 13.6061 10.1592 13.4797 10.034 13.3533C9.57062 12.905 9.17045 12.3946 8.84472 11.8362L8.7821 11.7098C8.72773 11.6326 8.6855 11.5473 8.65692 11.457C8.64055 11.3475 8.6627 11.2357 8.71951 11.1409C8.77648 11.0461 8.9699 10.8249 9.15768 10.6352C9.34547 10.4456 9.34547 10.3192 9.47066 10.1928C9.535 10.1025 9.57946 9.99944 9.60106 9.89041C9.62265 9.78138 9.62087 9.66894 9.59584 9.56066C9.30413 8.74275 8.96982 7.94097 8.59433 7.15868C8.49368 7.00061 8.33687 6.8875 8.15616 6.84262H7.46761C7.34242 6.84262 7.21724 6.90583 7.09203 6.90583L7.02944 6.96904C6.90426 7.03224 6.77907 7.15868 6.65387 7.22189C6.52868 7.28509 6.46609 7.47474 6.3409 7.60115C5.90331 8.15956 5.66118 8.84861 5.65235 9.56066C5.65928 10.0615 5.76571 10.5559 5.96531 11.0145L6.02792 11.2041C6.58997 12.4176 7.37602 13.5117 8.34396 14.4279L8.59433 14.6807C8.77653 14.8331 8.94418 15.0024 9.09509 15.1864C10.3921 16.3261 11.9325 17.1478 13.5957 17.5884C13.7835 17.6516 14.0339 17.6516 14.2216 17.7148H14.8476C15.1748 17.6985 15.4948 17.6123 15.7865 17.462C15.9399 17.3918 16.0863 17.3071 16.2247 17.2091L16.3499 17.0827C16.4751 16.9563 16.6003 16.8931 16.7254 16.7667C16.8478 16.6566 16.9533 16.5288 17.0384 16.3874C17.1586 16.1042 17.2431 15.8071 17.2888 15.5025V15.06C17.2326 15.0089 17.1693 14.9664 17.101 14.9335" fill="white"/>
</svg>
